<svg width="209" height="51" viewBox="0 0 209 51" fill="none" xmlns="http://www.w3.org/2000/svg">
<circle cx="132.5" cy="25.5" r="25.5" fill="#35C178"/>
<path d="M118.98 22.08C120.313 22.08 121.387 22.48 122.2 23.28C123.027 24.08 123.44 25.2667 123.44 26.84V33H120.32V27.32C120.32 26.4667 120.133 25.8333 119.76 25.42C119.387 24.9933 118.847 24.78 118.14 24.78C117.353 24.78 116.727 25.0267 116.26 25.52C115.793 26 115.56 26.72 115.56 27.68V33H112.44V22.24H115.42V23.5C115.833 23.0467 116.347 22.7 116.96 22.46C117.573 22.2067 118.247 22.08 118.98 22.08ZM136.925 27.66C136.925 27.7 136.905 27.98 136.865 28.5H128.725C128.872 29.1667 129.219 29.6933 129.765 30.08C130.312 30.4667 130.992 30.66 131.805 30.66C132.365 30.66 132.859 30.58 133.285 30.42C133.725 30.2467 134.132 29.98 134.505 29.62L136.165 31.42C135.152 32.58 133.672 33.16 131.725 33.16C130.512 33.16 129.439 32.9267 128.505 32.46C127.572 31.98 126.852 31.32 126.345 30.48C125.839 29.64 125.585 28.6867 125.585 27.62C125.585 26.5667 125.832 25.62 126.325 24.78C126.832 23.9267 127.519 23.2667 128.385 22.8C129.265 22.32 130.245 22.08 131.325 22.08C132.379 22.08 133.332 22.3067 134.185 22.76C135.039 23.2133 135.705 23.8667 136.185 24.72C136.679 25.56 136.925 26.54 136.925 27.66ZM131.345 24.44C130.639 24.44 130.045 24.64 129.565 25.04C129.085 25.44 128.792 25.9867 128.685 26.68H133.985C133.879 26 133.585 25.46 133.105 25.06C132.625 24.6467 132.039 24.44 131.345 24.44ZM145.55 33L143.19 29.7L140.75 33H137.35L141.49 27.58L137.49 22.24H140.99L143.27 25.38L145.61 22.24H148.93L144.93 27.5L149.09 33H145.55ZM157.544 32.48C157.237 32.7067 156.857 32.88 156.404 33C155.964 33.1067 155.497 33.16 155.004 33.16C153.724 33.16 152.731 32.8333 152.024 32.18C151.331 31.5267 150.984 30.5667 150.984 29.3V24.88H149.324V22.48H150.984V19.86H154.104V22.48H156.784V24.88H154.104V29.26C154.104 29.7133 154.217 30.0667 154.444 30.32C154.684 30.56 155.017 30.68 155.444 30.68C155.937 30.68 156.357 30.5467 156.704 30.28L157.544 32.48ZM162.715 22.48H165.475V24.88H162.795V33H159.675V24.88H158.015V22.48H159.675V22C159.675 20.7733 160.035 19.8 160.755 19.08C161.489 18.36 162.515 18 163.835 18C164.302 18 164.742 18.0533 165.155 18.16C165.582 18.2533 165.935 18.3933 166.215 18.58L165.395 20.84C165.035 20.5867 164.615 20.46 164.135 20.46C163.189 20.46 162.715 20.98 162.715 22.02V22.48ZM171.611 23.66C171.985 23.14 172.485 22.7467 173.111 22.48C173.751 22.2133 174.485 22.08 175.311 22.08V24.96C174.965 24.9333 174.731 24.92 174.611 24.92C173.718 24.92 173.018 25.1733 172.511 25.68C172.005 26.1733 171.751 26.92 171.751 27.92V33H168.631V22.24H171.611V23.66ZM187.609 27.66C187.609 27.7 187.589 27.98 187.549 28.5H179.409C179.556 29.1667 179.902 29.6933 180.449 30.08C180.996 30.4667 181.676 30.66 182.489 30.66C183.049 30.66 183.542 30.58 183.969 30.42C184.409 30.2467 184.816 29.98 185.189 29.62L186.849 31.42C185.836 32.58 184.356 33.16 182.409 33.16C181.196 33.16 180.122 32.9267 179.189 32.46C178.256 31.98 177.536 31.32 177.029 30.48C176.522 29.64 176.269 28.6867 176.269 27.62C176.269 26.5667 176.516 25.62 177.009 24.78C177.516 23.9267 178.202 23.2667 179.069 22.8C179.949 22.32 180.929 22.08 182.009 22.08C183.062 22.08 184.016 22.3067 184.869 22.76C185.722 23.2133 186.389 23.8667 186.869 24.72C187.362 25.56 187.609 26.54 187.609 27.66ZM182.029 24.44C181.322 24.44 180.729 24.64 180.249 25.04C179.769 25.44 179.476 25.9867 179.369 26.68H184.669C184.562 26 184.269 25.46 183.789 25.06C183.309 24.6467 182.722 24.44 182.029 24.44ZM200.226 27.66C200.226 27.7 200.206 27.98 200.166 28.5H192.026C192.173 29.1667 192.519 29.6933 193.066 30.08C193.613 30.4667 194.293 30.66 195.106 30.66C195.666 30.66 196.159 30.58 196.586 30.42C197.026 30.2467 197.433 29.98 197.806 29.62L199.466 31.42C198.453 32.58 196.973 33.16 195.026 33.16C193.813 33.16 192.739 32.9267 191.806 32.46C190.873 31.98 190.153 31.32 189.646 30.48C189.139 29.64 188.886 28.6867 188.886 27.62C188.886 26.5667 189.133 25.62 189.626 24.78C190.133 23.9267 190.819 23.2667 191.686 22.8C192.566 22.32 193.546 22.08 194.626 22.08C195.679 22.08 196.633 22.3067 197.486 22.76C198.339 23.2133 199.006 23.8667 199.486 24.72C199.979 25.56 200.226 26.54 200.226 27.66ZM194.646 24.44C193.939 24.44 193.346 24.64 192.866 25.04C192.386 25.44 192.093 25.9867 191.986 26.68H197.286C197.179 26 196.886 25.46 196.406 25.06C195.926 24.6467 195.339 24.44 194.646 24.44ZM205.483 33.16C204.937 33.16 204.477 32.9733 204.103 32.6C203.73 32.2267 203.543 31.76 203.543 31.2C203.543 30.6267 203.73 30.1667 204.103 29.82C204.477 29.46 204.937 29.28 205.483 29.28C206.03 29.28 206.49 29.46 206.863 29.82C207.237 30.1667 207.423 30.6267 207.423 31.2C207.423 31.76 207.237 32.2267 206.863 32.6C206.49 32.9733 206.03 33.16 205.483 33.16Z" fill="white"/>
<path d="M14.5 19V33H11.28V21.64H4.96V33H1.74V19H14.5ZM22.7705 33.16C21.6371 33.16 20.6171 32.9267 19.7105 32.46C18.8171 31.98 18.1171 31.32 17.6105 30.48C17.1038 29.64 16.8505 28.6867 16.8505 27.62C16.8505 26.5533 17.1038 25.6 17.6105 24.76C18.1171 23.92 18.8171 23.2667 19.7105 22.8C20.6171 22.32 21.6371 22.08 22.7705 22.08C23.9038 22.08 24.9171 22.32 25.8105 22.8C26.7038 23.2667 27.4038 23.92 27.9105 24.76C28.4171 25.6 28.6705 26.5533 28.6705 27.62C28.6705 28.6867 28.4171 29.64 27.9105 30.48C27.4038 31.32 26.7038 31.98 25.8105 32.46C24.9171 32.9267 23.9038 33.16 22.7705 33.16ZM22.7705 30.6C23.5705 30.6 24.2238 30.3333 24.7305 29.8C25.2505 29.2533 25.5105 28.5267 25.5105 27.62C25.5105 26.7133 25.2505 25.9933 24.7305 25.46C24.2238 24.9133 23.5705 24.64 22.7705 24.64C21.9705 24.64 21.3105 24.9133 20.7905 25.46C20.2705 25.9933 20.0105 26.7133 20.0105 27.62C20.0105 28.5267 20.2705 29.2533 20.7905 29.8C21.3105 30.3333 21.9705 30.6 22.7705 30.6ZM35.5564 28.92H33.9364V33H30.8164V22.24H33.9364V26.42H35.6164L38.5364 22.24H41.8564L38.0964 27.4L42.1164 33H38.4364L35.5564 28.92ZM53.823 22.24L48.963 33.66C48.4696 34.9 47.8563 35.7733 47.123 36.28C46.403 36.7867 45.5296 37.04 44.503 37.04C43.943 37.04 43.3896 36.9533 42.843 36.78C42.2963 36.6067 41.8496 36.3667 41.503 36.06L42.643 33.84C42.883 34.0533 43.1563 34.22 43.463 34.34C43.783 34.46 44.0963 34.52 44.403 34.52C44.8296 34.52 45.1763 34.4133 45.443 34.2C45.7096 34 45.9496 33.66 46.163 33.18L46.203 33.08L41.543 22.24H44.763L47.783 29.54L50.823 22.24H53.823ZM66.0281 22.24V33H62.9081V24.8H58.4281V33H55.3281V22.24H66.0281ZM79.4795 27.66C79.4795 27.7 79.4595 27.98 79.4195 28.5H71.2795C71.4262 29.1667 71.7729 29.6933 72.3195 30.08C72.8662 30.4667 73.5462 30.66 74.3595 30.66C74.9195 30.66 75.4129 30.58 75.8395 30.42C76.2795 30.2467 76.6862 29.98 77.0595 29.62L78.7195 31.42C77.7062 32.58 76.2262 33.16 74.2795 33.16C73.0662 33.16 71.9929 32.9267 71.0595 32.46C70.1262 31.98 69.4062 31.32 68.8995 30.48C68.3929 29.64 68.1395 28.6867 68.1395 27.62C68.1395 26.5667 68.3862 25.62 68.8795 24.78C69.3862 23.9267 70.0729 23.2667 70.9395 22.8C71.8195 22.32 72.7995 22.08 73.8795 22.08C74.9329 22.08 75.8862 22.3067 76.7395 22.76C77.5929 23.2133 78.2595 23.8667 78.7395 24.72C79.2329 25.56 79.4795 26.54 79.4795 27.66ZM73.8995 24.44C73.1929 24.44 72.5995 24.64 72.1195 25.04C71.6395 25.44 71.3462 25.9867 71.2395 26.68H76.5395C76.4329 26 76.1395 25.46 75.6595 25.06C75.1795 24.6467 74.5929 24.44 73.8995 24.44ZM93.9911 30.44V35.36H91.0911V33H81.8711V22.24H84.9711V30.44H89.3111V22.24H92.4311V30.44H93.9911ZM101.773 25.68C103.173 25.6933 104.246 26.0133 104.993 26.64C105.74 27.2533 106.113 28.1267 106.113 29.26C106.113 30.4467 105.693 31.3733 104.853 32.04C104.026 32.6933 102.86 33.02 101.353 33.02L95.9531 33V22.24H99.0531V25.68H101.773ZM101.073 30.8C101.673 30.8133 102.133 30.6867 102.453 30.42C102.773 30.1533 102.933 29.7533 102.933 29.22C102.933 28.7 102.773 28.32 102.453 28.08C102.146 27.84 101.686 27.7133 101.073 27.7L99.0531 27.68V30.8H101.073Z" fill="#35C178"/>
</svg>
