<svg width="249" height="51" viewBox="0 0 249 51" fill="none" xmlns="http://www.w3.org/2000/svg">
<circle cx="172.5" cy="25.5" r="25.5" fill="#35C178"/>
<path d="M158.98 22.08C160.313 22.08 161.387 22.48 162.2 23.28C163.027 24.08 163.44 25.2667 163.44 26.84V33H160.32V27.32C160.32 26.4667 160.133 25.8333 159.76 25.42C159.387 24.9933 158.847 24.78 158.14 24.78C157.353 24.78 156.727 25.0267 156.26 25.52C155.793 26 155.56 26.72 155.56 27.68V33H152.44V22.24H155.42V23.5C155.833 23.0467 156.347 22.7 156.96 22.46C157.573 22.2067 158.247 22.08 158.98 22.08ZM176.925 27.66C176.925 27.7 176.905 27.98 176.865 28.5H168.725C168.872 29.1667 169.219 29.6933 169.765 30.08C170.312 30.4667 170.992 30.66 171.805 30.66C172.365 30.66 172.859 30.58 173.285 30.42C173.725 30.2467 174.132 29.98 174.505 29.62L176.165 31.42C175.152 32.58 173.672 33.16 171.725 33.16C170.512 33.16 169.439 32.9267 168.505 32.46C167.572 31.98 166.852 31.32 166.345 30.48C165.839 29.64 165.585 28.6867 165.585 27.62C165.585 26.5667 165.832 25.62 166.325 24.78C166.832 23.9267 167.519 23.2667 168.385 22.8C169.265 22.32 170.245 22.08 171.325 22.08C172.379 22.08 173.332 22.3067 174.185 22.76C175.039 23.2133 175.705 23.8667 176.185 24.72C176.679 25.56 176.925 26.54 176.925 27.66ZM171.345 24.44C170.639 24.44 170.045 24.64 169.565 25.04C169.085 25.44 168.792 25.9867 168.685 26.68H173.985C173.879 26 173.585 25.46 173.105 25.06C172.625 24.6467 172.039 24.44 171.345 24.44ZM185.55 33L183.19 29.7L180.75 33H177.35L181.49 27.58L177.49 22.24H180.99L183.27 25.38L185.61 22.24H188.93L184.93 27.5L189.09 33H185.55ZM197.544 32.48C197.237 32.7067 196.857 32.88 196.404 33C195.964 33.1067 195.497 33.16 195.004 33.16C193.724 33.16 192.731 32.8333 192.024 32.18C191.331 31.5267 190.984 30.5667 190.984 29.3V24.88H189.324V22.48H190.984V19.86H194.104V22.48H196.784V24.88H194.104V29.26C194.104 29.7133 194.217 30.0667 194.444 30.32C194.684 30.56 195.017 30.68 195.444 30.68C195.937 30.68 196.357 30.5467 196.704 30.28L197.544 32.48ZM202.715 22.48H205.475V24.88H202.795V33H199.675V24.88H198.015V22.48H199.675V22C199.675 20.7733 200.035 19.8 200.755 19.08C201.489 18.36 202.515 18 203.835 18C204.302 18 204.742 18.0533 205.155 18.16C205.582 18.2533 205.935 18.3933 206.215 18.58L205.395 20.84C205.035 20.5867 204.615 20.46 204.135 20.46C203.189 20.46 202.715 20.98 202.715 22.02V22.48ZM211.611 23.66C211.985 23.14 212.485 22.7467 213.111 22.48C213.751 22.2133 214.485 22.08 215.311 22.08V24.96C214.965 24.9333 214.731 24.92 214.611 24.92C213.718 24.92 213.018 25.1733 212.511 25.68C212.005 26.1733 211.751 26.92 211.751 27.92V33H208.631V22.24H211.611V23.66ZM227.609 27.66C227.609 27.7 227.589 27.98 227.549 28.5H219.409C219.556 29.1667 219.902 29.6933 220.449 30.08C220.996 30.4667 221.676 30.66 222.489 30.66C223.049 30.66 223.542 30.58 223.969 30.42C224.409 30.2467 224.816 29.98 225.189 29.62L226.849 31.42C225.836 32.58 224.356 33.16 222.409 33.16C221.196 33.16 220.122 32.9267 219.189 32.46C218.256 31.98 217.536 31.32 217.029 30.48C216.522 29.64 216.269 28.6867 216.269 27.62C216.269 26.5667 216.516 25.62 217.009 24.78C217.516 23.9267 218.202 23.2667 219.069 22.8C219.949 22.32 220.929 22.08 222.009 22.08C223.062 22.08 224.016 22.3067 224.869 22.76C225.722 23.2133 226.389 23.8667 226.869 24.72C227.362 25.56 227.609 26.54 227.609 27.66ZM222.029 24.44C221.322 24.44 220.729 24.64 220.249 25.04C219.769 25.44 219.476 25.9867 219.369 26.68H224.669C224.562 26 224.269 25.46 223.789 25.06C223.309 24.6467 222.722 24.44 222.029 24.44ZM240.226 27.66C240.226 27.7 240.206 27.98 240.166 28.5H232.026C232.173 29.1667 232.519 29.6933 233.066 30.08C233.613 30.4667 234.293 30.66 235.106 30.66C235.666 30.66 236.159 30.58 236.586 30.42C237.026 30.2467 237.433 29.98 237.806 29.62L239.466 31.42C238.453 32.58 236.973 33.16 235.026 33.16C233.813 33.16 232.739 32.9267 231.806 32.46C230.873 31.98 230.153 31.32 229.646 30.48C229.139 29.64 228.886 28.6867 228.886 27.62C228.886 26.5667 229.133 25.62 229.626 24.78C230.133 23.9267 230.819 23.2667 231.686 22.8C232.566 22.32 233.546 22.08 234.626 22.08C235.679 22.08 236.633 22.3067 237.486 22.76C238.339 23.2133 239.006 23.8667 239.486 24.72C239.979 25.56 240.226 26.54 240.226 27.66ZM234.646 24.44C233.939 24.44 233.346 24.64 232.866 25.04C232.386 25.44 232.093 25.9867 231.986 26.68H237.286C237.179 26 236.886 25.46 236.406 25.06C235.926 24.6467 235.339 24.44 234.646 24.44ZM245.483 33.16C244.937 33.16 244.477 32.9733 244.103 32.6C243.73 32.2267 243.543 31.76 243.543 31.2C243.543 30.6267 243.73 30.1667 244.103 29.82C244.477 29.46 244.937 29.28 245.483 29.28C246.03 29.28 246.49 29.46 246.863 29.82C247.237 30.1667 247.423 30.6267 247.423 31.2C247.423 31.76 247.237 32.2267 246.863 32.6C246.49 32.9733 246.03 33.16 245.483 33.16Z" fill="white"/>
<path d="M8.36 33.24C6.93333 33.24 5.64 32.9333 4.48 32.32C3.33333 31.6933 2.42667 30.8333 1.76 29.74C1.10667 28.6333 0.78 27.3867 0.78 26C0.78 24.6133 1.10667 23.3733 1.76 22.28C2.42667 21.1733 3.33333 20.3133 4.48 19.7C5.64 19.0733 6.94 18.76 8.38 18.76C9.59333 18.76 10.6867 18.9733 11.66 19.4C12.6467 19.8267 13.4733 20.44 14.14 21.24L12.06 23.16C11.1133 22.0667 9.94 21.52 8.54 21.52C7.67333 21.52 6.9 21.7133 6.22 22.1C5.54 22.4733 5.00667 23 4.62 23.68C4.24667 24.36 4.06 25.1333 4.06 26C4.06 26.8667 4.24667 27.64 4.62 28.32C5.00667 29 5.54 29.5333 6.22 29.92C6.9 30.2933 7.67333 30.48 8.54 30.48C9.94 30.48 11.1133 29.9267 12.06 28.82L14.14 30.74C13.4733 31.5533 12.6467 32.1733 11.66 32.6C10.6733 33.0267 9.57333 33.24 8.36 33.24ZM26.7117 22.24V33H23.5917V24.8H19.1117V33H16.0117V22.24H26.7117ZM29.6831 22.24H32.8031V33H29.6831V22.24ZM31.2431 20.74C30.6698 20.74 30.2031 20.5733 29.8431 20.24C29.4831 19.9067 29.3031 19.4933 29.3031 19C29.3031 18.5067 29.4831 18.0933 29.8431 17.76C30.2031 17.4267 30.6698 17.26 31.2431 17.26C31.8165 17.26 32.2831 17.42 32.6431 17.74C33.0031 18.06 33.1831 18.46 33.1831 18.94C33.1831 19.46 33.0031 19.8933 32.6431 20.24C32.2831 20.5733 31.8165 20.74 31.2431 20.74ZM44.0169 27.38C45.2835 27.8067 45.9169 28.66 45.9169 29.94C45.9169 30.9133 45.5502 31.6667 44.8169 32.2C44.0835 32.7333 42.9902 33 41.5369 33H35.7969V22.24H41.2969C42.6435 22.24 43.6969 22.4867 44.4569 22.98C45.2169 23.46 45.5969 24.14 45.5969 25.02C45.5969 25.5533 45.4569 26.0267 45.1769 26.44C44.9102 26.84 44.5235 27.1533 44.0169 27.38ZM38.6569 26.66H41.0169C42.1102 26.66 42.6569 26.2733 42.6569 25.5C42.6569 24.74 42.1102 24.36 41.0169 24.36H38.6569V26.66ZM41.2769 30.88C42.4235 30.88 42.9969 30.4867 42.9969 29.7C42.9969 29.2867 42.8635 28.9867 42.5969 28.8C42.3302 28.6 41.9102 28.5 41.3369 28.5H38.6569V30.88H41.2769ZM54.5783 22.08C55.5783 22.08 56.4849 22.3133 57.2983 22.78C58.1249 23.2333 58.7716 23.88 59.2383 24.72C59.7049 25.5467 59.9383 26.5133 59.9383 27.62C59.9383 28.7267 59.7049 29.7 59.2383 30.54C58.7716 31.3667 58.1249 32.0133 57.2983 32.48C56.4849 32.9333 55.5783 33.16 54.5783 33.16C53.2049 33.16 52.1249 32.7267 51.3383 31.86V36.88H48.2183V22.24H51.1983V23.48C51.9716 22.5467 53.0983 22.08 54.5783 22.08ZM54.0383 30.6C54.8383 30.6 55.4916 30.3333 55.9983 29.8C56.5183 29.2533 56.7783 28.5267 56.7783 27.62C56.7783 26.7133 56.5183 25.9933 55.9983 25.46C55.4916 24.9133 54.8383 24.64 54.0383 24.64C53.2383 24.64 52.5783 24.9133 52.0583 25.46C51.5516 25.9933 51.2983 26.7133 51.2983 27.62C51.2983 28.5267 51.5516 29.2533 52.0583 29.8C52.5783 30.3333 53.2383 30.6 54.0383 30.6ZM67.165 33.16C66.0317 33.16 65.0117 32.9267 64.105 32.46C63.2117 31.98 62.5117 31.32 62.005 30.48C61.4983 29.64 61.245 28.6867 61.245 27.62C61.245 26.5533 61.4983 25.6 62.005 24.76C62.5117 23.92 63.2117 23.2667 64.105 22.8C65.0117 22.32 66.0317 22.08 67.165 22.08C68.2983 22.08 69.3117 22.32 70.205 22.8C71.0983 23.2667 71.7983 23.92 72.305 24.76C72.8117 25.6 73.065 26.5533 73.065 27.62C73.065 28.6867 72.8117 29.64 72.305 30.48C71.7983 31.32 71.0983 31.98 70.205 32.46C69.3117 32.9267 68.2983 33.16 67.165 33.16ZM67.165 30.6C67.965 30.6 68.6183 30.3333 69.125 29.8C69.645 29.2533 69.905 28.5267 69.905 27.62C69.905 26.7133 69.645 25.9933 69.125 25.46C68.6183 24.9133 67.965 24.64 67.165 24.64C66.365 24.64 65.705 24.9133 65.185 25.46C64.665 25.9933 64.405 26.7133 64.405 27.62C64.405 28.5267 64.665 29.2533 65.185 29.8C65.705 30.3333 66.365 30.6 67.165 30.6ZM81.4309 22.98C82.4576 22.98 83.3576 23.1933 84.1309 23.62C84.9043 24.0333 85.4976 24.62 85.9109 25.38C86.3376 26.14 86.5509 27.02 86.5509 28.02C86.5509 29.0467 86.2976 29.96 85.7909 30.76C85.2976 31.5467 84.6043 32.16 83.7109 32.6C82.8176 33.0267 81.8043 33.24 80.6709 33.24C78.7909 33.24 77.3109 32.64 76.2309 31.44C75.1643 30.2267 74.6309 28.4533 74.6309 26.12C74.6309 23.96 75.0976 22.24 76.0309 20.96C76.9776 19.6667 78.4243 18.82 80.3709 18.42L85.4909 17.4L85.9109 20.08L81.3909 20.98C80.1643 21.22 79.2509 21.62 78.6509 22.18C78.0643 22.74 77.7176 23.5333 77.6109 24.56C78.0776 24.0533 78.6376 23.6667 79.2909 23.4C79.9443 23.12 80.6576 22.98 81.4309 22.98ZM80.6909 30.82C81.4909 30.82 82.1309 30.56 82.6109 30.04C83.1043 29.52 83.3509 28.86 83.3509 28.06C83.3509 27.2467 83.1043 26.6 82.6109 26.12C82.1309 25.64 81.4909 25.4 80.6909 25.4C79.8776 25.4 79.2243 25.64 78.7309 26.12C78.2376 26.6 77.9909 27.2467 77.9909 28.06C77.9909 28.8733 78.2443 29.54 78.7509 30.06C79.2576 30.5667 79.9043 30.82 80.6909 30.82ZM88.648 22.24H91.768V33H88.648V22.24ZM90.208 20.74C89.6346 20.74 89.168 20.5733 88.808 20.24C88.448 19.9067 88.268 19.4933 88.268 19C88.268 18.5067 88.448 18.0933 88.808 17.76C89.168 17.4267 89.6346 17.26 90.208 17.26C90.7813 17.26 91.248 17.42 91.608 17.74C91.968 18.06 92.148 18.46 92.148 18.94C92.148 19.46 91.968 19.8933 91.608 20.24C91.248 20.5733 90.7813 20.74 90.208 20.74ZM103.802 24.8H100.162V33H97.0617V24.8H93.4217V22.24H103.802V24.8ZM105.465 22.24H108.565V26.44H113.245V22.24H116.365V33H113.245V28.98H108.565V33H105.465V22.24ZM119.352 22.24H122.452V28.64L127.692 22.24H130.552V33H127.452V26.6L122.232 33H119.352V22.24ZM138.291 28.92H136.671V33H133.551V22.24H136.671V26.42H138.351L141.271 22.24H144.591L140.831 27.4L144.851 33H141.171L138.291 28.92Z" fill="#35C178"/>
</svg>
