<svg width="102" height="51" viewBox="0 0 102 51" fill="none" xmlns="http://www.w3.org/2000/svg">
<circle cx="25.5" cy="25.5" r="25.5" fill="#35C178"/>
<path d="M11.98 21.08C13.3133 21.08 14.3867 21.48 15.2 22.28C16.0267 23.08 16.44 24.2667 16.44 25.84V32H13.32V26.32C13.32 25.4667 13.1333 24.8333 12.76 24.42C12.3867 23.9933 11.8467 23.78 11.14 23.78C10.3533 23.78 9.72667 24.0267 9.26 24.52C8.79333 25 8.56 25.72 8.56 26.68V32H5.44V21.24H8.42V22.5C8.83333 22.0467 9.34667 21.7 9.96 21.46C10.5733 21.2067 11.2467 21.08 11.98 21.08ZM29.9253 26.66C29.9253 26.7 29.9053 26.98 29.8653 27.5H21.7253C21.872 28.1667 22.2186 28.6933 22.7653 29.08C23.312 29.4667 23.992 29.66 24.8053 29.66C25.3653 29.66 25.8586 29.58 26.2853 29.42C26.7253 29.2467 27.132 28.98 27.5053 28.62L29.1653 30.42C28.152 31.58 26.672 32.16 24.7253 32.16C23.512 32.16 22.4386 31.9267 21.5053 31.46C20.572 30.98 19.852 30.32 19.3453 29.48C18.8386 28.64 18.5853 27.6867 18.5853 26.62C18.5853 25.5667 18.832 24.62 19.3253 23.78C19.832 22.9267 20.5186 22.2667 21.3853 21.8C22.2653 21.32 23.2453 21.08 24.3253 21.08C25.3786 21.08 26.332 21.3067 27.1853 21.76C28.0386 22.2133 28.7053 22.8667 29.1853 23.72C29.6786 24.56 29.9253 25.54 29.9253 26.66ZM24.3453 23.44C23.6386 23.44 23.0453 23.64 22.5653 24.04C22.0853 24.44 21.792 24.9867 21.6853 25.68H26.9853C26.8786 25 26.5853 24.46 26.1053 24.06C25.6253 23.6467 25.0386 23.44 24.3453 23.44ZM38.5495 32L36.1895 28.7L33.7495 32H30.3495L34.4895 26.58L30.4895 21.24H33.9895L36.2695 24.38L38.6095 21.24H41.9295L37.9295 26.5L42.0895 32H38.5495ZM50.5441 31.48C50.2374 31.7067 49.8574 31.88 49.4041 32C48.9641 32.1067 48.4974 32.16 48.0041 32.16C46.7241 32.16 45.7307 31.8333 45.0241 31.18C44.3307 30.5267 43.9841 29.5667 43.9841 28.3V23.88H42.3241V21.48H43.9841V18.86H47.1041V21.48H49.7841V23.88H47.1041V28.26C47.1041 28.7133 47.2174 29.0667 47.4441 29.32C47.6841 29.56 48.0174 29.68 48.4441 29.68C48.9374 29.68 49.3574 29.5467 49.7041 29.28L50.5441 31.48ZM55.7155 21.48H58.4755V23.88H55.7955V32H52.6755V23.88H51.0155V21.48H52.6755V21C52.6755 19.7733 53.0355 18.8 53.7555 18.08C54.4888 17.36 55.5155 17 56.8355 17C57.3021 17 57.7421 17.0533 58.1555 17.16C58.5821 17.2533 58.9355 17.3933 59.2155 17.58L58.3955 19.84C58.0355 19.5867 57.6155 19.46 57.1355 19.46C56.1888 19.46 55.7155 19.98 55.7155 21.02V21.48ZM64.6114 22.66C64.9847 22.14 65.4847 21.7467 66.1114 21.48C66.7514 21.2133 67.4847 21.08 68.3114 21.08V23.96C67.9647 23.9333 67.7314 23.92 67.6114 23.92C66.7181 23.92 66.0181 24.1733 65.5114 24.68C65.0047 25.1733 64.7514 25.92 64.7514 26.92V32H61.6314V21.24H64.6114V22.66ZM80.6089 26.66C80.6089 26.7 80.5889 26.98 80.5489 27.5H72.4089C72.5556 28.1667 72.9022 28.6933 73.4489 29.08C73.9956 29.4667 74.6756 29.66 75.4889 29.66C76.0489 29.66 76.5422 29.58 76.9689 29.42C77.4089 29.2467 77.8156 28.98 78.1889 28.62L79.8489 30.42C78.8356 31.58 77.3556 32.16 75.4089 32.16C74.1956 32.16 73.1222 31.9267 72.1889 31.46C71.2556 30.98 70.5356 30.32 70.0289 29.48C69.5222 28.64 69.2689 27.6867 69.2689 26.62C69.2689 25.5667 69.5156 24.62 70.0089 23.78C70.5156 22.9267 71.2022 22.2667 72.0689 21.8C72.9489 21.32 73.9289 21.08 75.0089 21.08C76.0622 21.08 77.0156 21.3067 77.8689 21.76C78.7222 22.2133 79.3889 22.8667 79.8689 23.72C80.3622 24.56 80.6089 25.54 80.6089 26.66ZM75.0289 23.44C74.3222 23.44 73.7289 23.64 73.2489 24.04C72.7689 24.44 72.4756 24.9867 72.3689 25.68H77.6689C77.5622 25 77.2689 24.46 76.7889 24.06C76.3089 23.6467 75.7222 23.44 75.0289 23.44ZM93.2261 26.66C93.2261 26.7 93.2061 26.98 93.1661 27.5H85.0261C85.1728 28.1667 85.5194 28.6933 86.0661 29.08C86.6128 29.4667 87.2928 29.66 88.1061 29.66C88.6661 29.66 89.1594 29.58 89.5861 29.42C90.0261 29.2467 90.4328 28.98 90.8061 28.62L92.4661 30.42C91.4528 31.58 89.9728 32.16 88.0261 32.16C86.8128 32.16 85.7394 31.9267 84.8061 31.46C83.8728 30.98 83.1528 30.32 82.6461 29.48C82.1394 28.64 81.8861 27.6867 81.8861 26.62C81.8861 25.5667 82.1328 24.62 82.6261 23.78C83.1328 22.9267 83.8194 22.2667 84.6861 21.8C85.5661 21.32 86.5461 21.08 87.6261 21.08C88.6794 21.08 89.6328 21.3067 90.4861 21.76C91.3394 22.2133 92.0061 22.8667 92.4861 23.72C92.9794 24.56 93.2261 25.54 93.2261 26.66ZM87.6461 23.44C86.9394 23.44 86.3461 23.64 85.8661 24.04C85.3861 24.44 85.0928 24.9867 84.9861 25.68H90.2861C90.1794 25 89.8861 24.46 89.4061 24.06C88.9261 23.6467 88.3394 23.44 87.6461 23.44ZM98.4833 32.16C97.9366 32.16 97.4766 31.9733 97.1033 31.6C96.7299 31.2267 96.5433 30.76 96.5433 30.2C96.5433 29.6267 96.7299 29.1667 97.1033 28.82C97.4766 28.46 97.9366 28.28 98.4833 28.28C99.0299 28.28 99.4899 28.46 99.8633 28.82C100.237 29.1667 100.423 29.6267 100.423 30.2C100.423 30.76 100.237 31.2267 99.8633 31.6C99.4899 31.9733 99.0299 32.16 98.4833 32.16Z" fill="white"/>
</svg>
