<svg width="261" height="51" viewBox="0 0 261 51" fill="none" xmlns="http://www.w3.org/2000/svg">
<circle cx="184.5" cy="25.5" r="25.5" fill="#35C178"/>
<path d="M170.98 22.08C172.313 22.08 173.387 22.48 174.2 23.28C175.027 24.08 175.44 25.2667 175.44 26.84V33H172.32V27.32C172.32 26.4667 172.133 25.8333 171.76 25.42C171.387 24.9933 170.847 24.78 170.14 24.78C169.353 24.78 168.727 25.0267 168.26 25.52C167.793 26 167.56 26.72 167.56 27.68V33H164.44V22.24H167.42V23.5C167.833 23.0467 168.347 22.7 168.96 22.46C169.573 22.2067 170.247 22.08 170.98 22.08ZM188.925 27.66C188.925 27.7 188.905 27.98 188.865 28.5H180.725C180.872 29.1667 181.219 29.6933 181.765 30.08C182.312 30.4667 182.992 30.66 183.805 30.66C184.365 30.66 184.859 30.58 185.285 30.42C185.725 30.2467 186.132 29.98 186.505 29.62L188.165 31.42C187.152 32.58 185.672 33.16 183.725 33.16C182.512 33.16 181.439 32.9267 180.505 32.46C179.572 31.98 178.852 31.32 178.345 30.48C177.839 29.64 177.585 28.6867 177.585 27.62C177.585 26.5667 177.832 25.62 178.325 24.78C178.832 23.9267 179.519 23.2667 180.385 22.8C181.265 22.32 182.245 22.08 183.325 22.08C184.379 22.08 185.332 22.3067 186.185 22.76C187.039 23.2133 187.705 23.8667 188.185 24.72C188.679 25.56 188.925 26.54 188.925 27.66ZM183.345 24.44C182.639 24.44 182.045 24.64 181.565 25.04C181.085 25.44 180.792 25.9867 180.685 26.68H185.985C185.879 26 185.585 25.46 185.105 25.06C184.625 24.6467 184.039 24.44 183.345 24.44ZM197.55 33L195.19 29.7L192.75 33H189.35L193.49 27.58L189.49 22.24H192.99L195.27 25.38L197.61 22.24H200.93L196.93 27.5L201.09 33H197.55ZM209.544 32.48C209.237 32.7067 208.857 32.88 208.404 33C207.964 33.1067 207.497 33.16 207.004 33.16C205.724 33.16 204.731 32.8333 204.024 32.18C203.331 31.5267 202.984 30.5667 202.984 29.3V24.88H201.324V22.48H202.984V19.86H206.104V22.48H208.784V24.88H206.104V29.26C206.104 29.7133 206.217 30.0667 206.444 30.32C206.684 30.56 207.017 30.68 207.444 30.68C207.937 30.68 208.357 30.5467 208.704 30.28L209.544 32.48ZM214.715 22.48H217.475V24.88H214.795V33H211.675V24.88H210.015V22.48H211.675V22C211.675 20.7733 212.035 19.8 212.755 19.08C213.489 18.36 214.515 18 215.835 18C216.302 18 216.742 18.0533 217.155 18.16C217.582 18.2533 217.935 18.3933 218.215 18.58L217.395 20.84C217.035 20.5867 216.615 20.46 216.135 20.46C215.189 20.46 214.715 20.98 214.715 22.02V22.48ZM223.611 23.66C223.985 23.14 224.485 22.7467 225.111 22.48C225.751 22.2133 226.485 22.08 227.311 22.08V24.96C226.965 24.9333 226.731 24.92 226.611 24.92C225.718 24.92 225.018 25.1733 224.511 25.68C224.005 26.1733 223.751 26.92 223.751 27.92V33H220.631V22.24H223.611V23.66ZM239.609 27.66C239.609 27.7 239.589 27.98 239.549 28.5H231.409C231.556 29.1667 231.902 29.6933 232.449 30.08C232.996 30.4667 233.676 30.66 234.489 30.66C235.049 30.66 235.542 30.58 235.969 30.42C236.409 30.2467 236.816 29.98 237.189 29.62L238.849 31.42C237.836 32.58 236.356 33.16 234.409 33.16C233.196 33.16 232.122 32.9267 231.189 32.46C230.256 31.98 229.536 31.32 229.029 30.48C228.522 29.64 228.269 28.6867 228.269 27.62C228.269 26.5667 228.516 25.62 229.009 24.78C229.516 23.9267 230.202 23.2667 231.069 22.8C231.949 22.32 232.929 22.08 234.009 22.08C235.062 22.08 236.016 22.3067 236.869 22.76C237.722 23.2133 238.389 23.8667 238.869 24.72C239.362 25.56 239.609 26.54 239.609 27.66ZM234.029 24.44C233.322 24.44 232.729 24.64 232.249 25.04C231.769 25.44 231.476 25.9867 231.369 26.68H236.669C236.562 26 236.269 25.46 235.789 25.06C235.309 24.6467 234.722 24.44 234.029 24.44ZM252.226 27.66C252.226 27.7 252.206 27.98 252.166 28.5H244.026C244.173 29.1667 244.519 29.6933 245.066 30.08C245.613 30.4667 246.293 30.66 247.106 30.66C247.666 30.66 248.159 30.58 248.586 30.42C249.026 30.2467 249.433 29.98 249.806 29.62L251.466 31.42C250.453 32.58 248.973 33.16 247.026 33.16C245.813 33.16 244.739 32.9267 243.806 32.46C242.873 31.98 242.153 31.32 241.646 30.48C241.139 29.64 240.886 28.6867 240.886 27.62C240.886 26.5667 241.133 25.62 241.626 24.78C242.133 23.9267 242.819 23.2667 243.686 22.8C244.566 22.32 245.546 22.08 246.626 22.08C247.679 22.08 248.633 22.3067 249.486 22.76C250.339 23.2133 251.006 23.8667 251.486 24.72C251.979 25.56 252.226 26.54 252.226 27.66ZM246.646 24.44C245.939 24.44 245.346 24.64 244.866 25.04C244.386 25.44 244.093 25.9867 243.986 26.68H249.286C249.179 26 248.886 25.46 248.406 25.06C247.926 24.6467 247.339 24.44 246.646 24.44ZM257.483 33.16C256.937 33.16 256.477 32.9733 256.103 32.6C255.73 32.2267 255.543 31.76 255.543 31.2C255.543 30.6267 255.73 30.1667 256.103 29.82C256.477 29.46 256.937 29.28 257.483 29.28C258.03 29.28 258.49 29.46 258.863 29.82C259.237 30.1667 259.423 30.6267 259.423 31.2C259.423 31.76 259.237 32.2267 258.863 32.6C258.49 32.9733 258.03 33.16 257.483 33.16Z" fill="white"/>
<path d="M11.22 30H4.72L3.48 33H0.16L6.4 19H9.6L15.86 33H12.46L11.22 30ZM10.2 27.54L7.98 22.18L5.76 27.54H10.2ZM29.6538 30.44V35.32H26.7538V33H19.1938V35.32H16.2938V30.44H16.7338C17.4004 30.4267 17.8604 30.0333 18.1138 29.26C18.3671 28.4867 18.5271 27.3867 18.5938 25.96L18.7337 22.24H28.1138V30.44H29.6538ZM21.4138 26.18C21.3738 27.2733 21.2871 28.1667 21.1538 28.86C21.0338 29.5533 20.8004 30.08 20.4538 30.44H24.9938V24.8H21.4738L21.4138 26.18ZM42.1172 33V26.56L38.8972 31.96H37.5772L34.4372 26.54V33H31.6172V22.24H34.8772L38.3172 28.46L41.9772 22.24H44.8972L44.9372 33H42.1172ZM47.9058 22.24H51.0258V33H47.9058V22.24ZM49.4658 20.74C48.8924 20.74 48.4258 20.5733 48.0658 20.24C47.7058 19.9067 47.5258 19.4933 47.5258 19C47.5258 18.5067 47.7058 18.0933 48.0658 17.76C48.4258 17.4267 48.8924 17.26 49.4658 17.26C50.0391 17.26 50.5058 17.42 50.8658 17.74C51.2258 18.06 51.4058 18.46 51.4058 18.94C51.4058 19.46 51.2258 19.8933 50.8658 20.24C50.5058 20.5733 50.0391 20.74 49.4658 20.74ZM54.0195 22.24H57.1195V26.44H61.7995V22.24H64.9195V33H61.7995V28.98H57.1195V33H54.0195V22.24ZM67.8863 22.24H71.0063V33H67.8863V22.24ZM69.4463 20.74C68.8729 20.74 68.4063 20.5733 68.0463 20.24C67.6863 19.9067 67.5063 19.4933 67.5063 19C67.5063 18.5067 67.6863 18.0933 68.0463 17.76C68.4063 17.4267 68.8729 17.26 69.4463 17.26C70.0196 17.26 70.4863 17.42 70.8463 17.74C71.2063 18.06 71.3863 18.46 71.3863 18.94C71.3863 19.46 71.2063 19.8933 70.8463 20.24C70.4863 20.5733 70.0196 20.74 69.4463 20.74ZM79.12 33.16C77.9733 33.16 76.94 32.9267 76.02 32.46C75.1133 31.98 74.4 31.32 73.88 30.48C73.3733 29.64 73.12 28.6867 73.12 27.62C73.12 26.5533 73.3733 25.6 73.88 24.76C74.4 23.92 75.1133 23.2667 76.02 22.8C76.94 22.32 77.9733 22.08 79.12 22.08C80.2533 22.08 81.24 22.32 82.08 22.8C82.9333 23.2667 83.5533 23.94 83.94 24.82L81.52 26.12C80.96 25.1333 80.1533 24.64 79.1 24.64C78.2867 24.64 77.6133 24.9067 77.08 25.44C76.5467 25.9733 76.28 26.7 76.28 27.62C76.28 28.54 76.5467 29.2667 77.08 29.8C77.6133 30.3333 78.2867 30.6 79.1 30.6C80.1667 30.6 80.9733 30.1067 81.52 29.12L83.94 30.44C83.5533 31.2933 82.9333 31.96 82.08 32.44C81.24 32.92 80.2533 33.16 79.12 33.16ZM94.8369 24.8H91.1969V33H88.0969V24.8H84.4569V22.24H94.8369V24.8ZM102.84 22.08C103.84 22.08 104.747 22.3133 105.56 22.78C106.387 23.2333 107.033 23.88 107.5 24.72C107.967 25.5467 108.2 26.5133 108.2 27.62C108.2 28.7267 107.967 29.7 107.5 30.54C107.033 31.3667 106.387 32.0133 105.56 32.48C104.747 32.9333 103.84 33.16 102.84 33.16C101.467 33.16 100.387 32.7267 99.6 31.86V36.88H96.48V22.24H99.46V23.48C100.233 22.5467 101.36 22.08 102.84 22.08ZM102.3 30.6C103.1 30.6 103.753 30.3333 104.26 29.8C104.78 29.2533 105.04 28.5267 105.04 27.62C105.04 26.7133 104.78 25.9933 104.26 25.46C103.753 24.9133 103.1 24.64 102.3 24.64C101.5 24.64 100.84 24.9133 100.32 25.46C99.8133 25.9933 99.56 26.7133 99.56 27.62C99.56 28.5267 99.8133 29.2533 100.32 29.8C100.84 30.3333 101.5 30.6 102.3 30.6ZM114.391 22.08C116.058 22.08 117.338 22.48 118.231 23.28C119.124 24.0667 119.571 25.26 119.571 26.86V33H116.651V31.66C116.064 32.66 114.971 33.16 113.371 33.16C112.544 33.16 111.824 33.02 111.211 32.74C110.611 32.46 110.151 32.0733 109.831 31.58C109.511 31.0867 109.351 30.5267 109.351 29.9C109.351 28.9 109.724 28.1133 110.471 27.54C111.231 26.9667 112.398 26.68 113.971 26.68H116.451C116.451 26 116.244 25.48 115.831 25.12C115.418 24.7467 114.798 24.56 113.971 24.56C113.398 24.56 112.831 24.6533 112.271 24.84C111.724 25.0133 111.258 25.2533 110.871 25.56L109.751 23.38C110.338 22.9667 111.038 22.6467 111.851 22.42C112.678 22.1933 113.524 22.08 114.391 22.08ZM114.151 31.06C114.684 31.06 115.158 30.94 115.571 30.7C115.984 30.4467 116.278 30.08 116.451 29.6V28.5H114.311C113.031 28.5 112.391 28.92 112.391 29.76C112.391 30.16 112.544 30.48 112.851 30.72C113.171 30.9467 113.604 31.06 114.151 31.06ZM131.321 24.8H127.681V33H124.581V24.8H120.941V22.24H131.321V24.8ZM137.575 33.16C136.442 33.16 135.422 32.9267 134.515 32.46C133.622 31.98 132.922 31.32 132.415 30.48C131.908 29.64 131.655 28.6867 131.655 27.62C131.655 26.5533 131.908 25.6 132.415 24.76C132.922 23.92 133.622 23.2667 134.515 22.8C135.422 22.32 136.442 22.08 137.575 22.08C138.708 22.08 139.722 22.32 140.615 22.8C141.508 23.2667 142.208 23.92 142.715 24.76C143.222 25.6 143.475 26.5533 143.475 27.62C143.475 28.6867 143.222 29.64 142.715 30.48C142.208 31.32 141.508 31.98 140.615 32.46C139.722 32.9267 138.708 33.16 137.575 33.16ZM137.575 30.6C138.375 30.6 139.028 30.3333 139.535 29.8C140.055 29.2533 140.315 28.5267 140.315 27.62C140.315 26.7133 140.055 25.9933 139.535 25.46C139.028 24.9133 138.375 24.64 137.575 24.64C136.775 24.64 136.115 24.9133 135.595 25.46C135.075 25.9933 134.815 26.7133 134.815 27.62C134.815 28.5267 135.075 29.2533 135.595 29.8C136.115 30.3333 136.775 30.6 137.575 30.6ZM151.961 22.08C152.961 22.08 153.868 22.3133 154.681 22.78C155.508 23.2333 156.154 23.88 156.621 24.72C157.088 25.5467 157.321 26.5133 157.321 27.62C157.321 28.7267 157.088 29.7 156.621 30.54C156.154 31.3667 155.508 32.0133 154.681 32.48C153.868 32.9333 152.961 33.16 151.961 33.16C150.588 33.16 149.508 32.7267 148.721 31.86V36.88H145.601V22.24H148.581V23.48C149.354 22.5467 150.481 22.08 151.961 22.08ZM151.421 30.6C152.221 30.6 152.874 30.3333 153.381 29.8C153.901 29.2533 154.161 28.5267 154.161 27.62C154.161 26.7133 153.901 25.9933 153.381 25.46C152.874 24.9133 152.221 24.64 151.421 24.64C150.621 24.64 149.961 24.9133 149.441 25.46C148.934 25.9933 148.681 26.7133 148.681 27.62C148.681 28.5267 148.934 29.2533 149.441 29.8C149.961 30.3333 150.621 30.6 151.421 30.6Z" fill="#F43D3B"/>
</svg>
