<svg width="196" height="51" viewBox="0 0 196 51" fill="none" xmlns="http://www.w3.org/2000/svg">
<circle cx="119.5" cy="25.5" r="25.5" fill="#35C178"/>
<path d="M105.98 22.08C107.313 22.08 108.387 22.48 109.2 23.28C110.027 24.08 110.44 25.2667 110.44 26.84V33H107.32V27.32C107.32 26.4667 107.133 25.8333 106.76 25.42C106.387 24.9933 105.847 24.78 105.14 24.78C104.353 24.78 103.727 25.0267 103.26 25.52C102.793 26 102.56 26.72 102.56 27.68V33H99.44V22.24H102.42V23.5C102.833 23.0467 103.347 22.7 103.96 22.46C104.573 22.2067 105.247 22.08 105.98 22.08ZM123.925 27.66C123.925 27.7 123.905 27.98 123.865 28.5H115.725C115.872 29.1667 116.219 29.6933 116.765 30.08C117.312 30.4667 117.992 30.66 118.805 30.66C119.365 30.66 119.859 30.58 120.285 30.42C120.725 30.2467 121.132 29.98 121.505 29.62L123.165 31.42C122.152 32.58 120.672 33.16 118.725 33.16C117.512 33.16 116.439 32.9267 115.505 32.46C114.572 31.98 113.852 31.32 113.345 30.48C112.839 29.64 112.585 28.6867 112.585 27.62C112.585 26.5667 112.832 25.62 113.325 24.78C113.832 23.9267 114.519 23.2667 115.385 22.8C116.265 22.32 117.245 22.08 118.325 22.08C119.379 22.08 120.332 22.3067 121.185 22.76C122.039 23.2133 122.705 23.8667 123.185 24.72C123.679 25.56 123.925 26.54 123.925 27.66ZM118.345 24.44C117.639 24.44 117.045 24.64 116.565 25.04C116.085 25.44 115.792 25.9867 115.685 26.68H120.985C120.879 26 120.585 25.46 120.105 25.06C119.625 24.6467 119.039 24.44 118.345 24.44ZM132.55 33L130.19 29.7L127.75 33H124.35L128.49 27.58L124.49 22.24H127.99L130.27 25.38L132.61 22.24H135.93L131.93 27.5L136.09 33H132.55ZM144.544 32.48C144.237 32.7067 143.857 32.88 143.404 33C142.964 33.1067 142.497 33.16 142.004 33.16C140.724 33.16 139.731 32.8333 139.024 32.18C138.331 31.5267 137.984 30.5667 137.984 29.3V24.88H136.324V22.48H137.984V19.86H141.104V22.48H143.784V24.88H141.104V29.26C141.104 29.7133 141.217 30.0667 141.444 30.32C141.684 30.56 142.017 30.68 142.444 30.68C142.937 30.68 143.357 30.5467 143.704 30.28L144.544 32.48ZM149.715 22.48H152.475V24.88H149.795V33H146.675V24.88H145.015V22.48H146.675V22C146.675 20.7733 147.035 19.8 147.755 19.08C148.489 18.36 149.515 18 150.835 18C151.302 18 151.742 18.0533 152.155 18.16C152.582 18.2533 152.935 18.3933 153.215 18.58L152.395 20.84C152.035 20.5867 151.615 20.46 151.135 20.46C150.189 20.46 149.715 20.98 149.715 22.02V22.48ZM158.611 23.66C158.985 23.14 159.485 22.7467 160.111 22.48C160.751 22.2133 161.485 22.08 162.311 22.08V24.96C161.965 24.9333 161.731 24.92 161.611 24.92C160.718 24.92 160.018 25.1733 159.511 25.68C159.005 26.1733 158.751 26.92 158.751 27.92V33H155.631V22.24H158.611V23.66ZM174.609 27.66C174.609 27.7 174.589 27.98 174.549 28.5H166.409C166.556 29.1667 166.902 29.6933 167.449 30.08C167.996 30.4667 168.676 30.66 169.489 30.66C170.049 30.66 170.542 30.58 170.969 30.42C171.409 30.2467 171.816 29.98 172.189 29.62L173.849 31.42C172.836 32.58 171.356 33.16 169.409 33.16C168.196 33.16 167.122 32.9267 166.189 32.46C165.256 31.98 164.536 31.32 164.029 30.48C163.522 29.64 163.269 28.6867 163.269 27.62C163.269 26.5667 163.516 25.62 164.009 24.78C164.516 23.9267 165.202 23.2667 166.069 22.8C166.949 22.32 167.929 22.08 169.009 22.08C170.062 22.08 171.016 22.3067 171.869 22.76C172.722 23.2133 173.389 23.8667 173.869 24.72C174.362 25.56 174.609 26.54 174.609 27.66ZM169.029 24.44C168.322 24.44 167.729 24.64 167.249 25.04C166.769 25.44 166.476 25.9867 166.369 26.68H171.669C171.562 26 171.269 25.46 170.789 25.06C170.309 24.6467 169.722 24.44 169.029 24.44ZM187.226 27.66C187.226 27.7 187.206 27.98 187.166 28.5H179.026C179.173 29.1667 179.519 29.6933 180.066 30.08C180.613 30.4667 181.293 30.66 182.106 30.66C182.666 30.66 183.159 30.58 183.586 30.42C184.026 30.2467 184.433 29.98 184.806 29.62L186.466 31.42C185.453 32.58 183.973 33.16 182.026 33.16C180.813 33.16 179.739 32.9267 178.806 32.46C177.873 31.98 177.153 31.32 176.646 30.48C176.139 29.64 175.886 28.6867 175.886 27.62C175.886 26.5667 176.133 25.62 176.626 24.78C177.133 23.9267 177.819 23.2667 178.686 22.8C179.566 22.32 180.546 22.08 181.626 22.08C182.679 22.08 183.633 22.3067 184.486 22.76C185.339 23.2133 186.006 23.8667 186.486 24.72C186.979 25.56 187.226 26.54 187.226 27.66ZM181.646 24.44C180.939 24.44 180.346 24.64 179.866 25.04C179.386 25.44 179.093 25.9867 178.986 26.68H184.286C184.179 26 183.886 25.46 183.406 25.06C182.926 24.6467 182.339 24.44 181.646 24.44ZM192.483 33.16C191.937 33.16 191.477 32.9733 191.103 32.6C190.73 32.2267 190.543 31.76 190.543 31.2C190.543 30.6267 190.73 30.1667 191.103 29.82C191.477 29.46 191.937 29.28 192.483 29.28C193.03 29.28 193.49 29.46 193.863 29.82C194.237 30.1667 194.423 30.6267 194.423 31.2C194.423 31.76 194.237 32.2267 193.863 32.6C193.49 32.9733 193.03 33.16 192.483 33.16Z" fill="white"/>
<path d="M11.44 25.7C12.2933 25.9533 12.9467 26.3667 13.4 26.94C13.8533 27.5133 14.08 28.22 14.08 29.06C14.08 30.3 13.6067 31.2667 12.66 31.96C11.7267 32.6533 10.3867 33 8.64 33H1.74V19H8.26C9.88667 19 11.1533 19.3133 12.06 19.94C12.9667 20.5667 13.42 21.46 13.42 22.62C13.42 23.3133 13.2467 23.9267 12.9 24.46C12.5533 24.98 12.0667 25.3933 11.44 25.7ZM4.96 24.8H7.98C8.68667 24.8 9.22 24.66 9.58 24.38C9.94 24.0867 10.12 23.66 10.12 23.1C10.12 22.5533 9.93333 22.1333 9.56 21.84C9.2 21.5467 8.67333 21.4 7.98 21.4H4.96V24.8ZM8.52 30.6C10.04 30.6 10.8 30 10.8 28.8C10.8 27.64 10.04 27.06 8.52 27.06H4.96V30.6H8.52ZM26.7223 22.24V33H23.6023V24.8H20.2023L20.1023 26.7C20.049 28.1133 19.9157 29.2867 19.7023 30.22C19.489 31.1533 19.1423 31.8867 18.6623 32.42C18.1823 32.9533 17.5157 33.22 16.6623 33.22C16.209 33.22 15.669 33.14 15.0423 32.98L15.2023 30.42C15.4157 30.4467 15.569 30.46 15.6623 30.46C16.129 30.46 16.4757 30.2933 16.7023 29.96C16.9423 29.6133 17.1023 29.18 17.1823 28.66C17.2623 28.1267 17.3223 27.4267 17.3623 26.56L17.5223 22.24H26.7223ZM33.9027 22.08C35.5693 22.08 36.8493 22.48 37.7427 23.28C38.636 24.0667 39.0827 25.26 39.0827 26.86V33H36.1627V31.66C35.576 32.66 34.4827 33.16 32.8827 33.16C32.056 33.16 31.336 33.02 30.7227 32.74C30.1227 32.46 29.6627 32.0733 29.3427 31.58C29.0227 31.0867 28.8627 30.5267 28.8627 29.9C28.8627 28.9 29.236 28.1133 29.9827 27.54C30.7427 26.9667 31.9093 26.68 33.4827 26.68H35.9627C35.9627 26 35.756 25.48 35.3427 25.12C34.9293 24.7467 34.3093 24.56 33.4827 24.56C32.9093 24.56 32.3427 24.6533 31.7827 24.84C31.236 25.0133 30.7693 25.2533 30.3827 25.56L29.2627 23.38C29.8493 22.9667 30.5493 22.6467 31.3627 22.42C32.1893 22.1933 33.036 22.08 33.9027 22.08ZM33.6627 31.06C34.196 31.06 34.6693 30.94 35.0827 30.7C35.496 30.4467 35.7893 30.08 35.9627 29.6V28.5H33.8227C32.5427 28.5 31.9027 28.92 31.9027 29.76C31.9027 30.16 32.056 30.48 32.3627 30.72C32.6827 30.9467 33.116 31.06 33.6627 31.06ZM46.913 33.16C45.7663 33.16 44.733 32.9267 43.813 32.46C42.9063 31.98 42.193 31.32 41.673 30.48C41.1663 29.64 40.913 28.6867 40.913 27.62C40.913 26.5533 41.1663 25.6 41.673 24.76C42.193 23.92 42.9063 23.2667 43.813 22.8C44.733 22.32 45.7663 22.08 46.913 22.08C48.0463 22.08 49.033 22.32 49.873 22.8C50.7263 23.2667 51.3463 23.94 51.733 24.82L49.313 26.12C48.753 25.1333 47.9463 24.64 46.893 24.64C46.0796 24.64 45.4063 24.9067 44.873 25.44C44.3396 25.9733 44.073 26.7 44.073 27.62C44.073 28.54 44.3396 29.2667 44.873 29.8C45.4063 30.3333 46.0796 30.6 46.893 30.6C47.9596 30.6 48.7663 30.1067 49.313 29.12L51.733 30.44C51.3463 31.2933 50.7263 31.96 49.873 32.44C49.033 32.92 48.0463 33.16 46.913 33.16ZM53.6289 22.24H56.7289V26.44H61.4089V22.24H64.5289V33H61.4089V28.98H56.7289V33H53.6289V22.24ZM67.5156 22.24H70.6156V28.64L75.8556 22.24H78.7156V33H75.6156V26.6L70.3956 33H67.5156V22.24ZM86.4548 28.92H84.8348V33H81.7148V22.24H84.8348V26.42H86.5148L89.4348 22.24H92.7548L88.9948 27.4L93.0148 33H89.3348L86.4548 28.92Z" fill="#35C178"/>
</svg>
