<svg width="402" height="476" viewBox="0 0 402 476" fill="none" xmlns="http://www.w3.org/2000/svg">
<path d="M371.002 230.41C387.602 136.269 324.735 46.5312 230.586 29.9759C136.436 13.4206 46.6562 76.3167 30.0564 170.458C13.4567 264.6 76.3233 354.338 170.473 370.893C264.622 387.448 354.402 324.552 371.002 230.41Z" fill="white"/>
<g opacity="0.4">
<path opacity="0.4" d="M257.746 180.708L255.36 179.65L248.659 176.679L238.39 172.149C238.245 172.082 238.111 172.015 237.977 171.915L229.726 170.635L229.135 170.546C227.942 170.602 226.827 170.635 225.757 170.635C221.33 170.635 217.907 170.112 215.287 169.266C212.198 168.276 210.203 166.807 208.932 165.182C205.185 160.407 207.794 154.23 207.794 154.23L235.391 151.915L244.656 153.25L244.801 153.239C245.437 153.239 246.05 153.351 246.63 153.607L257.144 158.27" fill="#415659"/>
<path opacity="0.4" d="M254.822 234.212L257.61 191.408L256.64 192.855C256.64 187.112 252.47 180.545 248.69 176.784L255.391 179.744L263.085 183.15L268.426 200.768C268.426 200.779 256.662 215.058 254.822 234.212Z" fill="#415659"/>
<path opacity="0.4" d="M218.062 270.109H192.416C182.839 270.109 175.078 262.363 175.078 252.803V116.499C175.078 106.939 182.839 99.1924 192.416 99.1924H218.062" fill="#415659"/>
<path opacity="0.4" d="M217.852 99.1924H244.222C253.8 99.1924 261.56 106.939 261.56 116.499V252.803C261.56 262.363 253.8 270.109 244.222 270.109H217.852" fill="#415659"/>
<path opacity="0.4" d="M256.274 118.092H180.052V241.419H256.274V118.092Z" fill="#415659"/>
<path opacity="0.4" d="M228.319 254.442C228.319 258.872 224.639 262.467 220.101 262.467C215.563 262.467 211.884 258.872 211.884 254.442C211.884 250.013 215.563 246.418 220.101 246.418C224.639 246.418 228.319 250.013 228.319 254.442Z" fill="#415659"/>
<path opacity="0.4" d="M253.134 111.666C253.134 113.057 251.997 114.193 250.603 114.193H189.546C188.152 114.193 187.015 113.057 187.015 111.666C187.015 110.275 188.152 109.14 189.546 109.14H250.603C251.997 109.14 253.134 110.275 253.134 111.666Z" fill="#415659"/>
<path opacity="0.4" d="M244.091 191.705H241.727V194.065H244.091V191.705Z" fill="#415659"/>
<path opacity="0.4" d="M244.091 190.711H241.727V193.07H244.091V190.711Z" fill="#415659"/>
<path opacity="0.4" d="M244.091 187.726H241.727V190.097H244.091V187.726Z" fill="#415659"/>
<path opacity="0.4" d="M244.091 184.743H241.727V187.102H244.091V184.743Z" fill="#415659"/>
<path opacity="0.4" d="M244.091 183.747H241.727V186.107H244.091V183.747Z" fill="#415659"/>
<path opacity="0.4" d="M244.091 180.763H241.727V183.122H244.091V180.763Z" fill="#415659"/>
<path opacity="0.4" d="M244.091 177.779H241.727V180.127H244.091V177.779Z" fill="#415659"/>
<path opacity="0.4" d="M244.091 174.795H241.727V177.154H244.091V174.795Z" fill="#415659"/>
<path opacity="0.4" d="M244.091 173.8H241.727V176.16H244.091V173.8Z" fill="#415659"/>
<path opacity="0.4" d="M244.091 170.815H241.727V173.175H244.091V170.815Z" fill="#415659"/>
<path opacity="0.4" d="M244.091 167.832H241.727V170.192H244.091V167.832Z" fill="#415659"/>
<path opacity="0.4" d="M244.091 166.836H241.727V169.196H244.091V166.836Z" fill="#415659"/>
<path opacity="0.4" d="M244.091 163.852H241.727V166.212H244.091V163.852Z" fill="#415659"/>
<path opacity="0.4" d="M244.091 160.868H241.727V163.239H244.091V160.868Z" fill="#415659"/>
<path opacity="0.4" d="M244.091 158.878H241.727V161.238H244.091V158.878Z" fill="#415659"/>
<path opacity="0.4" d="M244.091 156.889H241.727V159.249H244.091V156.889Z" fill="#415659"/>
<path opacity="0.4" d="M244.091 153.905H241.727V156.264H244.091V153.905Z" fill="#415659"/>
<path opacity="0.4" d="M244.091 150.921H241.727V153.27H244.091V150.921Z" fill="#415659"/>
<path opacity="0.4" d="M244.091 149.926H241.727V152.285H244.091V149.926Z" fill="#415659"/>
<path opacity="0.4" d="M244.091 146.942H241.727V149.302H244.091V146.942Z" fill="#415659"/>
<path opacity="0.4" d="M244.091 143.957H241.727V146.316H244.091V143.957Z" fill="#415659"/>
<path opacity="0.4" d="M244.091 142.961H241.727V145.321H244.091V142.961Z" fill="#415659"/>
<path opacity="0.4" d="M241.106 191.705H238.742V194.065H241.106V191.705Z" fill="#415659"/>
<path opacity="0.4" d="M241.106 190.711H238.742V193.07H241.106V190.711Z" fill="#415659"/>
<path opacity="0.4" d="M241.106 187.726H238.742V190.097H241.106V187.726Z" fill="#415659"/>
<path opacity="0.4" d="M241.106 184.743H238.742V187.102H241.106V184.743Z" fill="#415659"/>
<path opacity="0.4" d="M241.106 183.747H238.742V186.107H241.106V183.747Z" fill="#415659"/>
<path opacity="0.4" d="M241.106 180.763H238.742V183.122H241.106V180.763Z" fill="#415659"/>
<path opacity="0.4" d="M241.106 177.779H238.742V180.127H241.106V177.779Z" fill="#415659"/>
<path opacity="0.4" d="M241.106 174.795H238.742V177.154H241.106V174.795Z" fill="#415659"/>
<path opacity="0.4" d="M241.106 173.8H238.742V176.16H241.106V173.8Z" fill="#415659"/>
<path opacity="0.4" d="M241.106 170.815H238.742V173.175H241.106V170.815Z" fill="#415659"/>
<path opacity="0.4" d="M241.106 167.832H238.742V170.192H241.106V167.832Z" fill="#415659"/>
<path opacity="0.4" d="M241.106 166.836H238.742V169.196H241.106V166.836Z" fill="#415659"/>
<path opacity="0.4" d="M241.106 163.852H238.742V166.212H241.106V163.852Z" fill="#415659"/>
<path opacity="0.4" d="M241.106 160.868H238.742V163.239H241.106V160.868Z" fill="#415659"/>
<path opacity="0.4" d="M241.106 158.878H238.742V161.238H241.106V158.878Z" fill="#415659"/>
<path opacity="0.4" d="M241.106 156.889H238.742V159.249H241.106V156.889Z" fill="#415659"/>
<path opacity="0.4" d="M241.106 153.905H238.742V156.264H241.106V153.905Z" fill="#415659"/>
<path opacity="0.4" d="M241.106 150.921H238.742V153.27H241.106V150.921Z" fill="#415659"/>
<path opacity="0.4" d="M241.106 149.926H238.742V152.285H241.106V149.926Z" fill="#415659"/>
<path opacity="0.4" d="M241.106 146.942H238.742V149.302H241.106V146.942Z" fill="#415659"/>
<path opacity="0.4" d="M241.106 143.957H238.742V146.316H241.106V143.957Z" fill="#415659"/>
<path opacity="0.4" d="M241.106 142.961H238.742V145.321H241.106V142.961Z" fill="#415659"/>
<path opacity="0.4" d="M239.127 191.705H236.752V194.065H239.127V191.705Z" fill="#415659"/>
<path opacity="0.4" d="M239.127 190.711H236.752V193.07H239.127V190.711Z" fill="#415659"/>
<path opacity="0.4" d="M239.127 187.726H236.752V190.097H239.127V187.726Z" fill="#415659"/>
<path opacity="0.4" d="M239.127 184.743H236.752V187.102H239.127V184.743Z" fill="#415659"/>
<path opacity="0.4" d="M239.127 183.747H236.752V186.107H239.127V183.747Z" fill="#415659"/>
<path opacity="0.4" d="M239.127 180.763H236.752V183.122H239.127V180.763Z" fill="#415659"/>
<path opacity="0.4" d="M239.127 177.779H236.752V180.127H239.127V177.779Z" fill="#415659"/>
<path opacity="0.4" d="M239.127 174.795H236.752V177.154H239.127V174.795Z" fill="#415659"/>
<path opacity="0.4" d="M239.127 173.8H236.752V176.16H239.127V173.8Z" fill="#415659"/>
<path opacity="0.4" d="M239.127 170.815H236.752V173.175H239.127V170.815Z" fill="#415659"/>
<path opacity="0.4" d="M239.127 167.832H236.752V170.192H239.127V167.832Z" fill="#415659"/>
<path opacity="0.4" d="M239.127 166.836H236.752V169.196H239.127V166.836Z" fill="#415659"/>
<path opacity="0.4" d="M239.127 163.852H236.752V166.212H239.127V163.852Z" fill="#415659"/>
<path opacity="0.4" d="M239.127 160.868H236.752V163.239H239.127V160.868Z" fill="#415659"/>
<path opacity="0.4" d="M239.127 158.878H236.752V161.238H239.127V158.878Z" fill="#415659"/>
<path opacity="0.4" d="M239.127 156.889H236.752V159.249H239.127V156.889Z" fill="#415659"/>
<path opacity="0.4" d="M239.127 153.905H236.752V156.264H239.127V153.905Z" fill="#415659"/>
<path opacity="0.4" d="M239.127 150.921H236.752V153.27H239.127V150.921Z" fill="#415659"/>
<path opacity="0.4" d="M239.127 149.926H236.752V152.285H239.127V149.926Z" fill="#415659"/>
<path opacity="0.4" d="M239.127 146.942H236.752V149.302H239.127V146.942Z" fill="#415659"/>
<path opacity="0.4" d="M239.127 143.957H236.752V146.316H239.127V143.957Z" fill="#415659"/>
<path opacity="0.4" d="M239.127 142.961H236.752V145.321H239.127V142.961Z" fill="#415659"/>
<path opacity="0.4" d="M237.127 191.705H234.764V194.065H237.127V191.705Z" fill="#415659"/>
<path opacity="0.4" d="M237.127 190.711H234.764V193.07H237.127V190.711Z" fill="#415659"/>
<path opacity="0.4" d="M237.127 187.726H234.764V190.097H237.127V187.726Z" fill="#415659"/>
<path opacity="0.4" d="M237.127 184.743H234.764V187.102H237.127V184.743Z" fill="#415659"/>
<path opacity="0.4" d="M237.127 183.747H234.764V186.107H237.127V183.747Z" fill="#415659"/>
<path opacity="0.4" d="M237.127 180.763H234.764V183.122H237.127V180.763Z" fill="#415659"/>
<path opacity="0.4" d="M237.127 177.779H234.764V180.127H237.127V177.779Z" fill="#415659"/>
<path opacity="0.4" d="M237.127 174.795H234.764V177.154H237.127V174.795Z" fill="#415659"/>
<path opacity="0.4" d="M237.127 173.8H234.764V176.16H237.127V173.8Z" fill="#415659"/>
<path opacity="0.4" d="M237.127 170.815H234.764V173.175H237.127V170.815Z" fill="#415659"/>
<path opacity="0.4" d="M237.127 167.832H234.764V170.192H237.127V167.832Z" fill="#415659"/>
<path opacity="0.4" d="M237.127 166.836H234.764V169.196H237.127V166.836Z" fill="#415659"/>
<path opacity="0.4" d="M237.127 163.852H234.764V166.212H237.127V163.852Z" fill="#415659"/>
<path opacity="0.4" d="M237.127 160.868H234.764V163.239H237.127V160.868Z" fill="#415659"/>
<path opacity="0.4" d="M237.127 158.878H234.764V161.238H237.127V158.878Z" fill="#415659"/>
<path opacity="0.4" d="M237.127 156.889H234.764V159.249H237.127V156.889Z" fill="#415659"/>
<path opacity="0.4" d="M237.127 153.905H234.764V156.264H237.127V153.905Z" fill="#415659"/>
<path opacity="0.4" d="M237.127 150.921H234.764V153.27H237.127V150.921Z" fill="#415659"/>
<path opacity="0.4" d="M237.127 149.926H234.764V152.285H237.127V149.926Z" fill="#415659"/>
<path opacity="0.4" d="M237.127 146.942H234.764V149.302H237.127V146.942Z" fill="#415659"/>
<path opacity="0.4" d="M237.127 143.957H234.764V146.316H237.127V143.957Z" fill="#415659"/>
<path opacity="0.4" d="M237.127 142.961H234.764V145.321H237.127V142.961Z" fill="#415659"/>
<path opacity="0.4" d="M234.143 191.705H231.779V194.065H234.143V191.705Z" fill="#415659"/>
<path opacity="0.4" d="M234.143 190.711H231.779V193.07H234.143V190.711Z" fill="#415659"/>
<path opacity="0.4" d="M234.143 187.726H231.779V190.097H234.143V187.726Z" fill="#415659"/>
<path opacity="0.4" d="M234.143 184.743H231.779V187.102H234.143V184.743Z" fill="#415659"/>
<path opacity="0.4" d="M234.143 183.747H231.779V186.107H234.143V183.747Z" fill="#415659"/>
<path opacity="0.4" d="M234.143 180.763H231.779V183.122H234.143V180.763Z" fill="#415659"/>
<path opacity="0.4" d="M234.143 177.779H231.779V180.127H234.143V177.779Z" fill="#415659"/>
<path opacity="0.4" d="M234.143 174.795H231.779V177.154H234.143V174.795Z" fill="#415659"/>
<path opacity="0.4" d="M234.143 173.8H231.779V176.16H234.143V173.8Z" fill="#415659"/>
<path opacity="0.4" d="M234.143 170.815H231.779V173.175H234.143V170.815Z" fill="#415659"/>
<path opacity="0.4" d="M234.143 167.832H231.779V170.192H234.143V167.832Z" fill="#415659"/>
<path opacity="0.4" d="M234.143 166.836H231.779V169.196H234.143V166.836Z" fill="#415659"/>
<path opacity="0.4" d="M234.143 163.852H231.779V166.212H234.143V163.852Z" fill="#415659"/>
<path opacity="0.4" d="M234.143 160.868H231.779V163.239H234.143V160.868Z" fill="#415659"/>
<path opacity="0.4" d="M234.143 158.878H231.779V161.238H234.143V158.878Z" fill="#415659"/>
<path opacity="0.4" d="M234.143 156.889H231.779V159.249H234.143V156.889Z" fill="#415659"/>
<path opacity="0.4" d="M234.143 153.905H231.779V156.264H234.143V153.905Z" fill="#415659"/>
<path opacity="0.4" d="M234.143 150.921H231.779V153.27H234.143V150.921Z" fill="#415659"/>
<path opacity="0.4" d="M234.143 149.926H231.779V152.285H234.143V149.926Z" fill="#415659"/>
<path opacity="0.4" d="M234.143 146.942H231.779V149.302H234.143V146.942Z" fill="#415659"/>
<path opacity="0.4" d="M234.143 143.957H231.779V146.316H234.143V143.957Z" fill="#415659"/>
<path opacity="0.4" d="M234.143 142.961H231.779V145.321H234.143V142.961Z" fill="#415659"/>
<path opacity="0.4" d="M232.154 191.705H229.79V194.065H232.154V191.705Z" fill="#415659"/>
<path opacity="0.4" d="M232.154 190.711H229.79V193.07H232.154V190.711Z" fill="#415659"/>
<path opacity="0.4" d="M232.154 187.726H229.79V190.097H232.154V187.726Z" fill="#415659"/>
<path opacity="0.4" d="M232.154 184.743H229.79V187.102H232.154V184.743Z" fill="#415659"/>
<path opacity="0.4" d="M232.154 183.747H229.79V186.107H232.154V183.747Z" fill="#415659"/>
<path opacity="0.4" d="M232.154 180.763H229.79V183.122H232.154V180.763Z" fill="#415659"/>
<path opacity="0.4" d="M232.154 177.779H229.79V180.127H232.154V177.779Z" fill="#415659"/>
<path opacity="0.4" d="M232.154 174.795H229.79V177.154H232.154V174.795Z" fill="#415659"/>
<path opacity="0.4" d="M232.154 173.8H229.79V176.16H232.154V173.8Z" fill="#415659"/>
<path opacity="0.4" d="M232.154 170.815H229.79V173.175H232.154V170.815Z" fill="#415659"/>
<path opacity="0.4" d="M232.154 167.832H229.79V170.192H232.154V167.832Z" fill="#415659"/>
<path opacity="0.4" d="M232.154 166.836H229.79V169.196H232.154V166.836Z" fill="#415659"/>
<path opacity="0.4" d="M232.154 163.852H229.79V166.212H232.154V163.852Z" fill="#415659"/>
<path opacity="0.4" d="M232.154 160.868H229.79V163.239H232.154V160.868Z" fill="#415659"/>
<path opacity="0.4" d="M232.154 158.878H229.79V161.238H232.154V158.878Z" fill="#415659"/>
<path opacity="0.4" d="M232.154 156.889H229.79V159.249H232.154V156.889Z" fill="#415659"/>
<path opacity="0.4" d="M232.154 153.905H229.79V156.264H232.154V153.905Z" fill="#415659"/>
<path opacity="0.4" d="M232.154 150.921H229.79V153.27H232.154V150.921Z" fill="#415659"/>
<path opacity="0.4" d="M232.154 149.926H229.79V152.285H232.154V149.926Z" fill="#415659"/>
<path opacity="0.4" d="M232.154 146.942H229.79V149.302H232.154V146.942Z" fill="#415659"/>
<path opacity="0.4" d="M232.154 143.957H229.79V146.316H232.154V143.957Z" fill="#415659"/>
<path opacity="0.4" d="M232.154 142.961H229.79V145.321H232.154V142.961Z" fill="#415659"/>
<path opacity="0.4" d="M229.169 191.705H226.805V194.065H229.169V191.705Z" fill="#415659"/>
<path opacity="0.4" d="M229.169 190.711H226.805V193.07H229.169V190.711Z" fill="#415659"/>
<path opacity="0.4" d="M229.169 187.726H226.805V190.097H229.169V187.726Z" fill="#415659"/>
<path opacity="0.4" d="M229.169 184.743H226.805V187.102H229.169V184.743Z" fill="#415659"/>
<path opacity="0.4" d="M229.169 183.747H226.805V186.107H229.169V183.747Z" fill="#415659"/>
<path opacity="0.4" d="M229.169 180.763H226.805V183.122H229.169V180.763Z" fill="#415659"/>
<path opacity="0.4" d="M229.169 177.779H226.805V180.127H229.169V177.779Z" fill="#415659"/>
<path opacity="0.4" d="M229.169 174.795H226.805V177.154H229.169V174.795Z" fill="#415659"/>
<path opacity="0.4" d="M229.169 173.8H226.805V176.16H229.169V173.8Z" fill="#415659"/>
<path opacity="0.4" d="M229.169 170.815H226.805V173.175H229.169V170.815Z" fill="#415659"/>
<path opacity="0.4" d="M229.169 167.832H226.805V170.192H229.169V167.832Z" fill="#415659"/>
<path opacity="0.4" d="M229.169 166.836H226.805V169.196H229.169V166.836Z" fill="#415659"/>
<path opacity="0.4" d="M229.169 163.852H226.805V166.212H229.169V163.852Z" fill="#415659"/>
<path opacity="0.4" d="M229.169 160.868H226.805V163.239H229.169V160.868Z" fill="#415659"/>
<path opacity="0.4" d="M229.169 158.878H226.805V161.238H229.169V158.878Z" fill="#415659"/>
<path opacity="0.4" d="M229.169 156.889H226.805V159.249H229.169V156.889Z" fill="#415659"/>
<path opacity="0.4" d="M229.169 153.905H226.805V156.264H229.169V153.905Z" fill="#415659"/>
<path opacity="0.4" d="M229.169 150.921H226.805V153.27H229.169V150.921Z" fill="#415659"/>
<path opacity="0.4" d="M229.169 149.926H226.805V152.285H229.169V149.926Z" fill="#415659"/>
<path opacity="0.4" d="M229.169 146.942H226.805V149.302H229.169V146.942Z" fill="#415659"/>
<path opacity="0.4" d="M229.169 143.957H226.805V146.316H229.169V143.957Z" fill="#415659"/>
<path opacity="0.4" d="M229.169 142.961H226.805V145.321H229.169V142.961Z" fill="#415659"/>
<path opacity="0.4" d="M227.18 191.705H224.816V194.065H227.18V191.705Z" fill="#415659"/>
<path opacity="0.4" d="M227.18 190.711H224.816V193.07H227.18V190.711Z" fill="#415659"/>
<path opacity="0.4" d="M227.18 187.726H224.816V190.097H227.18V187.726Z" fill="#415659"/>
<path opacity="0.4" d="M227.18 184.743H224.816V187.102H227.18V184.743Z" fill="#415659"/>
<path opacity="0.4" d="M227.18 183.747H224.816V186.107H227.18V183.747Z" fill="#415659"/>
<path opacity="0.4" d="M227.18 180.763H224.816V183.122H227.18V180.763Z" fill="#415659"/>
<path opacity="0.4" d="M227.18 177.779H224.816V180.127H227.18V177.779Z" fill="#415659"/>
<path opacity="0.4" d="M227.18 174.795H224.816V177.154H227.18V174.795Z" fill="#415659"/>
<path opacity="0.4" d="M227.18 173.8H224.816V176.16H227.18V173.8Z" fill="#415659"/>
<path opacity="0.4" d="M227.18 170.815H224.816V173.175H227.18V170.815Z" fill="#415659"/>
<path opacity="0.4" d="M227.18 167.832H224.816V170.192H227.18V167.832Z" fill="#415659"/>
<path opacity="0.4" d="M227.18 166.836H224.816V169.196H227.18V166.836Z" fill="#415659"/>
<path opacity="0.4" d="M227.18 163.852H224.816V166.212H227.18V163.852Z" fill="#415659"/>
<path opacity="0.4" d="M227.18 160.868H224.816V163.239H227.18V160.868Z" fill="#415659"/>
<path opacity="0.4" d="M227.18 158.878H224.816V161.238H227.18V158.878Z" fill="#415659"/>
<path opacity="0.4" d="M227.18 156.889H224.816V159.249H227.18V156.889Z" fill="#415659"/>
<path opacity="0.4" d="M227.18 153.905H224.816V156.264H227.18V153.905Z" fill="#415659"/>
<path opacity="0.4" d="M227.18 150.921H224.816V153.27H227.18V150.921Z" fill="#415659"/>
<path opacity="0.4" d="M227.18 149.926H224.816V152.285H227.18V149.926Z" fill="#415659"/>
<path opacity="0.4" d="M227.18 146.942H224.816V149.302H227.18V146.942Z" fill="#415659"/>
<path opacity="0.4" d="M227.18 143.957H224.816V146.316H227.18V143.957Z" fill="#415659"/>
<path opacity="0.4" d="M227.18 142.961H224.816V145.321H227.18V142.961Z" fill="#415659"/>
<path opacity="0.4" d="M224.206 191.705H221.831V194.065H224.206V191.705Z" fill="#415659"/>
<path opacity="0.4" d="M224.206 190.711H221.831V193.07H224.206V190.711Z" fill="#415659"/>
<path opacity="0.4" d="M224.206 187.726H221.831V190.097H224.206V187.726Z" fill="#415659"/>
<path opacity="0.4" d="M224.206 184.743H221.831V187.102H224.206V184.743Z" fill="#415659"/>
<path opacity="0.4" d="M224.206 183.747H221.831V186.107H224.206V183.747Z" fill="#415659"/>
<path opacity="0.4" d="M224.206 180.763H221.831V183.122H224.206V180.763Z" fill="#415659"/>
<path opacity="0.4" d="M224.206 177.779H221.831V180.127H224.206V177.779Z" fill="#415659"/>
<path opacity="0.4" d="M224.206 174.795H221.831V177.154H224.206V174.795Z" fill="#415659"/>
<path opacity="0.4" d="M224.206 173.8H221.831V176.16H224.206V173.8Z" fill="#415659"/>
<path opacity="0.4" d="M224.206 170.815H221.831V173.175H224.206V170.815Z" fill="#415659"/>
<path opacity="0.4" d="M224.206 167.832H221.831V170.192H224.206V167.832Z" fill="#415659"/>
<path opacity="0.4" d="M224.206 166.836H221.831V169.196H224.206V166.836Z" fill="#415659"/>
<path opacity="0.4" d="M224.206 163.852H221.831V166.212H224.206V163.852Z" fill="#415659"/>
<path opacity="0.4" d="M224.206 160.868H221.831V163.239H224.206V160.868Z" fill="#415659"/>
<path opacity="0.4" d="M224.206 158.878H221.831V161.238H224.206V158.878Z" fill="#415659"/>
<path opacity="0.4" d="M224.206 156.889H221.831V159.249H224.206V156.889Z" fill="#415659"/>
<path opacity="0.4" d="M224.206 153.905H221.831V156.264H224.206V153.905Z" fill="#415659"/>
<path opacity="0.4" d="M224.206 150.921H221.831V153.27H224.206V150.921Z" fill="#415659"/>
<path opacity="0.4" d="M224.206 149.926H221.831V152.285H224.206V149.926Z" fill="#415659"/>
<path opacity="0.4" d="M224.206 146.942H221.831V149.302H224.206V146.942Z" fill="#415659"/>
<path opacity="0.4" d="M224.206 143.957H221.831V146.316H224.206V143.957Z" fill="#415659"/>
<path opacity="0.4" d="M224.206 142.961H221.831V145.321H224.206V142.961Z" fill="#415659"/>
<path opacity="0.4" d="M222.205 191.705H219.841V194.065H222.205V191.705Z" fill="#415659"/>
<path opacity="0.4" d="M222.205 190.711H219.841V193.07H222.205V190.711Z" fill="#415659"/>
<path opacity="0.4" d="M222.205 187.726H219.841V190.097H222.205V187.726Z" fill="#415659"/>
<path opacity="0.4" d="M222.205 184.743H219.841V187.102H222.205V184.743Z" fill="#415659"/>
<path opacity="0.4" d="M222.205 183.747H219.841V186.107H222.205V183.747Z" fill="#415659"/>
<path opacity="0.4" d="M222.205 180.763H219.841V183.122H222.205V180.763Z" fill="#415659"/>
<path opacity="0.4" d="M222.205 177.779H219.841V180.127H222.205V177.779Z" fill="#415659"/>
<path opacity="0.4" d="M222.205 174.795H219.841V177.154H222.205V174.795Z" fill="#415659"/>
<path opacity="0.4" d="M222.205 173.8H219.841V176.16H222.205V173.8Z" fill="#415659"/>
<path opacity="0.4" d="M222.205 170.815H219.841V173.175H222.205V170.815Z" fill="#415659"/>
<path opacity="0.4" d="M222.205 167.832H219.841V170.192H222.205V167.832Z" fill="#415659"/>
<path opacity="0.4" d="M222.205 166.836H219.841V169.196H222.205V166.836Z" fill="#415659"/>
<path opacity="0.4" d="M222.205 163.852H219.841V166.212H222.205V163.852Z" fill="#415659"/>
<path opacity="0.4" d="M222.205 160.868H219.841V163.239H222.205V160.868Z" fill="#415659"/>
<path opacity="0.4" d="M222.205 158.878H219.841V161.238H222.205V158.878Z" fill="#415659"/>
<path opacity="0.4" d="M222.205 156.889H219.841V159.249H222.205V156.889Z" fill="#415659"/>
<path opacity="0.4" d="M222.205 153.905H219.841V156.264H222.205V153.905Z" fill="#415659"/>
<path opacity="0.4" d="M222.205 150.921H219.841V153.27H222.205V150.921Z" fill="#415659"/>
<path opacity="0.4" d="M222.205 149.926H219.841V152.285H222.205V149.926Z" fill="#415659"/>
<path opacity="0.4" d="M222.205 146.942H219.841V149.302H222.205V146.942Z" fill="#415659"/>
<path opacity="0.4" d="M222.205 143.957H219.841V146.316H222.205V143.957Z" fill="#415659"/>
<path opacity="0.4" d="M222.205 142.961H219.841V145.321H222.205V142.961Z" fill="#415659"/>
<path opacity="0.4" d="M220.216 191.705H217.852V194.065H220.216V191.705Z" fill="#415659"/>
<path opacity="0.4" d="M220.216 190.711H217.852V193.07H220.216V190.711Z" fill="#415659"/>
<path opacity="0.4" d="M220.216 187.726H217.852V190.097H220.216V187.726Z" fill="#415659"/>
<path opacity="0.4" d="M220.216 184.743H217.852V187.102H220.216V184.743Z" fill="#415659"/>
<path opacity="0.4" d="M220.216 183.747H217.852V186.107H220.216V183.747Z" fill="#415659"/>
<path opacity="0.4" d="M220.216 180.763H217.852V183.122H220.216V180.763Z" fill="#415659"/>
<path opacity="0.4" d="M220.216 177.779H217.852V180.127H220.216V177.779Z" fill="#415659"/>
<path opacity="0.4" d="M220.216 174.795H217.852V177.154H220.216V174.795Z" fill="#415659"/>
<path opacity="0.4" d="M220.216 173.8H217.852V176.16H220.216V173.8Z" fill="#415659"/>
<path opacity="0.4" d="M220.216 170.815H217.852V173.175H220.216V170.815Z" fill="#415659"/>
<path opacity="0.4" d="M220.216 167.832H217.852V170.192H220.216V167.832Z" fill="#415659"/>
<path opacity="0.4" d="M220.216 166.836H217.852V169.196H220.216V166.836Z" fill="#415659"/>
<path opacity="0.4" d="M220.216 163.852H217.852V166.212H220.216V163.852Z" fill="#415659"/>
<path opacity="0.4" d="M220.216 160.868H217.852V163.239H220.216V160.868Z" fill="#415659"/>
<path opacity="0.4" d="M220.216 158.878H217.852V161.238H220.216V158.878Z" fill="#415659"/>
<path opacity="0.4" d="M220.216 156.889H217.852V159.249H220.216V156.889Z" fill="#415659"/>
<path opacity="0.4" d="M220.216 153.905H217.852V156.264H220.216V153.905Z" fill="#415659"/>
<path opacity="0.4" d="M220.216 150.921H217.852V153.27H220.216V150.921Z" fill="#415659"/>
<path opacity="0.4" d="M220.216 149.926H217.852V152.285H220.216V149.926Z" fill="#415659"/>
<path opacity="0.4" d="M220.216 146.942H217.852V149.302H220.216V146.942Z" fill="#415659"/>
<path opacity="0.4" d="M220.216 143.957H217.852V146.316H220.216V143.957Z" fill="#415659"/>
<path opacity="0.4" d="M220.216 142.961H217.852V145.321H220.216V142.961Z" fill="#415659"/>
<path opacity="0.4" d="M218.227 191.705H215.863V194.065H218.227V191.705Z" fill="#415659"/>
<path opacity="0.4" d="M218.227 190.711H215.863V193.07H218.227V190.711Z" fill="#415659"/>
<path opacity="0.4" d="M218.227 187.726H215.863V190.097H218.227V187.726Z" fill="#415659"/>
<path opacity="0.4" d="M218.227 184.743H215.863V187.102H218.227V184.743Z" fill="#415659"/>
<path opacity="0.4" d="M218.227 183.747H215.863V186.107H218.227V183.747Z" fill="#415659"/>
<path opacity="0.4" d="M218.227 180.763H215.863V183.122H218.227V180.763Z" fill="#415659"/>
<path opacity="0.4" d="M218.227 177.779H215.863V180.127H218.227V177.779Z" fill="#415659"/>
<path opacity="0.4" d="M218.227 174.795H215.863V177.154H218.227V174.795Z" fill="#415659"/>
<path opacity="0.4" d="M218.227 173.8H215.863V176.16H218.227V173.8Z" fill="#415659"/>
<path opacity="0.4" d="M218.227 170.815H215.863V173.175H218.227V170.815Z" fill="#415659"/>
<path opacity="0.4" d="M218.227 167.832H215.863V170.192H218.227V167.832Z" fill="#415659"/>
<path opacity="0.4" d="M218.227 166.836H215.863V169.196H218.227V166.836Z" fill="#415659"/>
<path opacity="0.4" d="M218.227 163.852H215.863V166.212H218.227V163.852Z" fill="#415659"/>
<path opacity="0.4" d="M218.227 160.868H215.863V163.239H218.227V160.868Z" fill="#415659"/>
<path opacity="0.4" d="M218.227 158.878H215.863V161.238H218.227V158.878Z" fill="#415659"/>
<path opacity="0.4" d="M218.227 156.889H215.863V159.249H218.227V156.889Z" fill="#415659"/>
<path opacity="0.4" d="M218.227 153.905H215.863V156.264H218.227V153.905Z" fill="#415659"/>
<path opacity="0.4" d="M218.227 150.921H215.863V153.27H218.227V150.921Z" fill="#415659"/>
<path opacity="0.4" d="M218.227 149.926H215.863V152.285H218.227V149.926Z" fill="#415659"/>
<path opacity="0.4" d="M218.227 146.942H215.863V149.302H218.227V146.942Z" fill="#415659"/>
<path opacity="0.4" d="M218.227 143.957H215.863V146.316H218.227V143.957Z" fill="#415659"/>
<path opacity="0.4" d="M218.227 142.961H215.863V145.321H218.227V142.961Z" fill="#415659"/>
<path opacity="0.4" d="M216.237 191.705H213.873V194.065H216.237V191.705Z" fill="#415659"/>
<path opacity="0.4" d="M216.237 190.711H213.873V193.07H216.237V190.711Z" fill="#415659"/>
<path opacity="0.4" d="M216.237 187.726H213.873V190.097H216.237V187.726Z" fill="#415659"/>
<path opacity="0.4" d="M216.237 184.743H213.873V187.102H216.237V184.743Z" fill="#415659"/>
<path opacity="0.4" d="M216.237 183.747H213.873V186.107H216.237V183.747Z" fill="#415659"/>
<path opacity="0.4" d="M216.237 180.763H213.873V183.122H216.237V180.763Z" fill="#415659"/>
<path opacity="0.4" d="M216.237 177.779H213.873V180.127H216.237V177.779Z" fill="#415659"/>
<path opacity="0.4" d="M216.237 174.795H213.873V177.154H216.237V174.795Z" fill="#415659"/>
<path opacity="0.4" d="M216.237 173.8H213.873V176.16H216.237V173.8Z" fill="#415659"/>
<path opacity="0.4" d="M216.237 170.815H213.873V173.175H216.237V170.815Z" fill="#415659"/>
<path opacity="0.4" d="M216.237 167.832H213.873V170.192H216.237V167.832Z" fill="#415659"/>
<path opacity="0.4" d="M216.237 166.836H213.873V169.196H216.237V166.836Z" fill="#415659"/>
<path opacity="0.4" d="M216.237 163.852H213.873V166.212H216.237V163.852Z" fill="#415659"/>
<path opacity="0.4" d="M216.237 160.868H213.873V163.239H216.237V160.868Z" fill="#415659"/>
<path opacity="0.4" d="M216.237 158.878H213.873V161.238H216.237V158.878Z" fill="#415659"/>
<path opacity="0.4" d="M216.237 156.889H213.873V159.249H216.237V156.889Z" fill="#415659"/>
<path opacity="0.4" d="M216.237 153.905H213.873V156.264H216.237V153.905Z" fill="#415659"/>
<path opacity="0.4" d="M216.237 150.921H213.873V153.27H216.237V150.921Z" fill="#415659"/>
<path opacity="0.4" d="M216.237 149.926H213.873V152.285H216.237V149.926Z" fill="#415659"/>
<path opacity="0.4" d="M216.237 146.942H213.873V149.302H216.237V146.942Z" fill="#415659"/>
<path opacity="0.4" d="M216.237 143.957H213.873V146.316H216.237V143.957Z" fill="#415659"/>
<path opacity="0.4" d="M216.237 142.961H213.873V145.321H216.237V142.961Z" fill="#415659"/>
<path opacity="0.4" d="M214.259 191.705H211.884V194.065H214.259V191.705Z" fill="#415659"/>
<path opacity="0.4" d="M214.259 190.711H211.884V193.07H214.259V190.711Z" fill="#415659"/>
<path opacity="0.4" d="M214.259 187.726H211.884V190.097H214.259V187.726Z" fill="#415659"/>
<path opacity="0.4" d="M214.259 184.743H211.884V187.102H214.259V184.743Z" fill="#415659"/>
<path opacity="0.4" d="M214.259 183.747H211.884V186.107H214.259V183.747Z" fill="#415659"/>
<path opacity="0.4" d="M214.259 180.763H211.884V183.122H214.259V180.763Z" fill="#415659"/>
<path opacity="0.4" d="M214.259 177.779H211.884V180.127H214.259V177.779Z" fill="#415659"/>
<path opacity="0.4" d="M214.259 174.795H211.884V177.154H214.259V174.795Z" fill="#415659"/>
<path opacity="0.4" d="M214.259 173.8H211.884V176.16H214.259V173.8Z" fill="#415659"/>
<path opacity="0.4" d="M214.259 170.815H211.884V173.175H214.259V170.815Z" fill="#415659"/>
<path opacity="0.4" d="M214.259 167.832H211.884V170.192H214.259V167.832Z" fill="#415659"/>
<path opacity="0.4" d="M214.259 166.836H211.884V169.196H214.259V166.836Z" fill="#415659"/>
<path opacity="0.4" d="M214.259 163.852H211.884V166.212H214.259V163.852Z" fill="#415659"/>
<path opacity="0.4" d="M214.259 160.868H211.884V163.239H214.259V160.868Z" fill="#415659"/>
<path opacity="0.4" d="M214.259 158.878H211.884V161.238H214.259V158.878Z" fill="#415659"/>
<path opacity="0.4" d="M214.259 156.889H211.884V159.249H214.259V156.889Z" fill="#415659"/>
<path opacity="0.4" d="M214.259 153.905H211.884V156.264H214.259V153.905Z" fill="#415659"/>
<path opacity="0.4" d="M214.259 150.921H211.884V153.27H214.259V150.921Z" fill="#415659"/>
<path opacity="0.4" d="M214.259 149.926H211.884V152.285H214.259V149.926Z" fill="#415659"/>
<path opacity="0.4" d="M214.259 146.942H211.884V149.302H214.259V146.942Z" fill="#415659"/>
<path opacity="0.4" d="M214.259 143.957H211.884V146.316H214.259V143.957Z" fill="#415659"/>
<path opacity="0.4" d="M214.259 142.961H211.884V145.321H214.259V142.961Z" fill="#415659"/>
<path opacity="0.4" d="M211.263 191.705H208.899V194.065H211.263V191.705Z" fill="#415659"/>
<path opacity="0.4" d="M211.263 190.711H208.899V193.07H211.263V190.711Z" fill="#415659"/>
<path opacity="0.4" d="M211.263 187.726H208.899V190.097H211.263V187.726Z" fill="#415659"/>
<path opacity="0.4" d="M211.263 184.743H208.899V187.102H211.263V184.743Z" fill="#415659"/>
<path opacity="0.4" d="M211.263 183.747H208.899V186.107H211.263V183.747Z" fill="#415659"/>
<path opacity="0.4" d="M211.263 180.763H208.899V183.122H211.263V180.763Z" fill="#415659"/>
<path opacity="0.4" d="M211.263 177.779H208.899V180.127H211.263V177.779Z" fill="#415659"/>
<path opacity="0.4" d="M211.263 174.795H208.899V177.154H211.263V174.795Z" fill="#415659"/>
<path opacity="0.4" d="M211.263 173.8H208.899V176.16H211.263V173.8Z" fill="#415659"/>
<path opacity="0.4" d="M211.263 170.815H208.899V173.175H211.263V170.815Z" fill="#415659"/>
<path opacity="0.4" d="M211.263 167.832H208.899V170.192H211.263V167.832Z" fill="#415659"/>
<path opacity="0.4" d="M211.263 166.836H208.899V169.196H211.263V166.836Z" fill="#415659"/>
<path opacity="0.4" d="M211.263 163.852H208.899V166.212H211.263V163.852Z" fill="#415659"/>
<path opacity="0.4" d="M211.263 160.868H208.899V163.239H211.263V160.868Z" fill="#415659"/>
<path opacity="0.4" d="M211.263 158.878H208.899V161.238H211.263V158.878Z" fill="#415659"/>
<path opacity="0.4" d="M211.263 156.889H208.899V159.249H211.263V156.889Z" fill="#415659"/>
<path opacity="0.4" d="M211.263 153.905H208.899V156.264H211.263V153.905Z" fill="#415659"/>
<path opacity="0.4" d="M211.263 150.921H208.899V153.27H211.263V150.921Z" fill="#415659"/>
<path opacity="0.4" d="M211.263 149.926H208.899V152.285H211.263V149.926Z" fill="#415659"/>
<path opacity="0.4" d="M211.263 146.942H208.899V149.302H211.263V146.942Z" fill="#415659"/>
<path opacity="0.4" d="M211.263 143.957H208.899V146.316H211.263V143.957Z" fill="#415659"/>
<path opacity="0.4" d="M211.263 142.961H208.899V145.321H211.263V142.961Z" fill="#415659"/>
<path opacity="0.4" d="M209.274 191.705H206.91V194.065H209.274V191.705Z" fill="#415659"/>
<path opacity="0.4" d="M209.274 190.711H206.91V193.07H209.274V190.711Z" fill="#415659"/>
<path opacity="0.4" d="M209.274 187.726H206.91V190.097H209.274V187.726Z" fill="#415659"/>
<path opacity="0.4" d="M209.274 184.743H206.91V187.102H209.274V184.743Z" fill="#415659"/>
<path opacity="0.4" d="M209.274 183.747H206.91V186.107H209.274V183.747Z" fill="#415659"/>
<path opacity="0.4" d="M209.274 180.763H206.91V183.122H209.274V180.763Z" fill="#415659"/>
<path opacity="0.4" d="M209.274 177.779H206.91V180.127H209.274V177.779Z" fill="#415659"/>
<path opacity="0.4" d="M209.274 174.795H206.91V177.154H209.274V174.795Z" fill="#415659"/>
<path opacity="0.4" d="M209.274 173.8H206.91V176.16H209.274V173.8Z" fill="#415659"/>
<path opacity="0.4" d="M209.274 170.815H206.91V173.175H209.274V170.815Z" fill="#415659"/>
<path opacity="0.4" d="M209.274 167.832H206.91V170.192H209.274V167.832Z" fill="#415659"/>
<path opacity="0.4" d="M209.274 166.836H206.91V169.196H209.274V166.836Z" fill="#415659"/>
<path opacity="0.4" d="M209.274 163.852H206.91V166.212H209.274V163.852Z" fill="#415659"/>
<path opacity="0.4" d="M209.274 160.868H206.91V163.239H209.274V160.868Z" fill="#415659"/>
<path opacity="0.4" d="M209.274 158.878H206.91V161.238H209.274V158.878Z" fill="#415659"/>
<path opacity="0.4" d="M209.274 156.889H206.91V159.249H209.274V156.889Z" fill="#415659"/>
<path opacity="0.4" d="M209.274 153.905H206.91V156.264H209.274V153.905Z" fill="#415659"/>
<path opacity="0.4" d="M209.274 150.921H206.91V153.27H209.274V150.921Z" fill="#415659"/>
<path opacity="0.4" d="M209.274 149.926H206.91V152.285H209.274V149.926Z" fill="#415659"/>
<path opacity="0.4" d="M209.274 146.942H206.91V149.302H209.274V146.942Z" fill="#415659"/>
<path opacity="0.4" d="M209.274 143.957H206.91V146.316H209.274V143.957Z" fill="#415659"/>
<path opacity="0.4" d="M209.274 142.961H206.91V145.321H209.274V142.961Z" fill="#415659"/>
<path opacity="0.4" d="M206.29 191.705H203.926V194.065H206.29V191.705Z" fill="#415659"/>
<path opacity="0.4" d="M206.29 190.711H203.926V193.07H206.29V190.711Z" fill="#415659"/>
<path opacity="0.4" d="M206.29 187.726H203.926V190.097H206.29V187.726Z" fill="#415659"/>
<path opacity="0.4" d="M206.29 184.743H203.926V187.102H206.29V184.743Z" fill="#415659"/>
<path opacity="0.4" d="M206.29 183.747H203.926V186.107H206.29V183.747Z" fill="#415659"/>
<path opacity="0.4" d="M206.29 180.763H203.926V183.122H206.29V180.763Z" fill="#415659"/>
<path opacity="0.4" d="M206.29 177.779H203.926V180.127H206.29V177.779Z" fill="#415659"/>
<path opacity="0.4" d="M206.29 174.795H203.926V177.154H206.29V174.795Z" fill="#415659"/>
<path opacity="0.4" d="M206.29 173.8H203.926V176.16H206.29V173.8Z" fill="#415659"/>
<path opacity="0.4" d="M206.29 170.815H203.926V173.175H206.29V170.815Z" fill="#415659"/>
<path opacity="0.4" d="M206.29 167.832H203.926V170.192H206.29V167.832Z" fill="#415659"/>
<path opacity="0.4" d="M206.29 166.836H203.926V169.196H206.29V166.836Z" fill="#415659"/>
<path opacity="0.4" d="M206.29 163.852H203.926V166.212H206.29V163.852Z" fill="#415659"/>
<path opacity="0.4" d="M206.29 160.868H203.926V163.239H206.29V160.868Z" fill="#415659"/>
<path opacity="0.4" d="M206.29 158.878H203.926V161.238H206.29V158.878Z" fill="#415659"/>
<path opacity="0.4" d="M206.29 156.889H203.926V159.249H206.29V156.889Z" fill="#415659"/>
<path opacity="0.4" d="M206.29 153.905H203.926V156.264H206.29V153.905Z" fill="#415659"/>
<path opacity="0.4" d="M206.29 150.921H203.926V153.27H206.29V150.921Z" fill="#415659"/>
<path opacity="0.4" d="M206.29 149.926H203.926V152.285H206.29V149.926Z" fill="#415659"/>
<path opacity="0.4" d="M206.29 146.942H203.926V149.302H206.29V146.942Z" fill="#415659"/>
<path opacity="0.4" d="M206.29 143.957H203.926V146.316H206.29V143.957Z" fill="#415659"/>
<path opacity="0.4" d="M206.29 142.961H203.926V145.321H206.29V142.961Z" fill="#415659"/>
<path opacity="0.4" d="M204.3 191.705H201.936V194.065H204.3V191.705Z" fill="#415659"/>
<path opacity="0.4" d="M204.3 190.711H201.936V193.07H204.3V190.711Z" fill="#415659"/>
<path opacity="0.4" d="M204.3 187.726H201.936V190.097H204.3V187.726Z" fill="#415659"/>
<path opacity="0.4" d="M204.3 184.743H201.936V187.102H204.3V184.743Z" fill="#415659"/>
<path opacity="0.4" d="M204.3 183.747H201.936V186.107H204.3V183.747Z" fill="#415659"/>
<path opacity="0.4" d="M204.3 180.763H201.936V183.122H204.3V180.763Z" fill="#415659"/>
<path opacity="0.4" d="M204.3 177.779H201.936V180.127H204.3V177.779Z" fill="#415659"/>
<path opacity="0.4" d="M204.3 174.795H201.936V177.154H204.3V174.795Z" fill="#415659"/>
<path opacity="0.4" d="M204.3 173.8H201.936V176.16H204.3V173.8Z" fill="#415659"/>
<path opacity="0.4" d="M204.3 170.815H201.936V173.175H204.3V170.815Z" fill="#415659"/>
<path opacity="0.4" d="M204.3 167.832H201.936V170.192H204.3V167.832Z" fill="#415659"/>
<path opacity="0.4" d="M204.3 166.836H201.936V169.196H204.3V166.836Z" fill="#415659"/>
<path opacity="0.4" d="M204.3 163.852H201.936V166.212H204.3V163.852Z" fill="#415659"/>
<path opacity="0.4" d="M204.3 160.868H201.936V163.239H204.3V160.868Z" fill="#415659"/>
<path opacity="0.4" d="M204.3 158.878H201.936V161.238H204.3V158.878Z" fill="#415659"/>
<path opacity="0.4" d="M204.3 156.889H201.936V159.249H204.3V156.889Z" fill="#415659"/>
<path opacity="0.4" d="M204.3 153.905H201.936V156.264H204.3V153.905Z" fill="#415659"/>
<path opacity="0.4" d="M204.3 150.921H201.936V153.27H204.3V150.921Z" fill="#415659"/>
<path opacity="0.4" d="M204.3 149.926H201.936V152.285H204.3V149.926Z" fill="#415659"/>
<path opacity="0.4" d="M204.3 146.942H201.936V149.302H204.3V146.942Z" fill="#415659"/>
<path opacity="0.4" d="M204.3 143.957H201.936V146.316H204.3V143.957Z" fill="#415659"/>
<path opacity="0.4" d="M204.3 142.961H201.936V145.321H204.3V142.961Z" fill="#415659"/>
<path opacity="0.4" d="M201.316 191.705H198.952V194.065H201.316V191.705Z" fill="#415659"/>
<path opacity="0.4" d="M201.316 190.711H198.952V193.07H201.316V190.711Z" fill="#415659"/>
<path opacity="0.4" d="M201.316 187.726H198.952V190.097H201.316V187.726Z" fill="#415659"/>
<path opacity="0.4" d="M201.316 184.743H198.952V187.102H201.316V184.743Z" fill="#415659"/>
<path opacity="0.4" d="M201.316 183.747H198.952V186.107H201.316V183.747Z" fill="#415659"/>
<path opacity="0.4" d="M201.316 180.763H198.952V183.122H201.316V180.763Z" fill="#415659"/>
<path opacity="0.4" d="M201.316 177.779H198.952V180.127H201.316V177.779Z" fill="#415659"/>
<path opacity="0.4" d="M201.316 174.795H198.952V177.154H201.316V174.795Z" fill="#415659"/>
<path opacity="0.4" d="M201.316 173.8H198.952V176.16H201.316V173.8Z" fill="#415659"/>
<path opacity="0.4" d="M201.316 170.815H198.952V173.175H201.316V170.815Z" fill="#415659"/>
<path opacity="0.4" d="M201.316 167.832H198.952V170.192H201.316V167.832Z" fill="#415659"/>
<path opacity="0.4" d="M201.316 166.836H198.952V169.196H201.316V166.836Z" fill="#415659"/>
<path opacity="0.4" d="M201.316 163.852H198.952V166.212H201.316V163.852Z" fill="#415659"/>
<path opacity="0.4" d="M201.316 160.868H198.952V163.239H201.316V160.868Z" fill="#415659"/>
<path opacity="0.4" d="M201.316 158.878H198.952V161.238H201.316V158.878Z" fill="#415659"/>
<path opacity="0.4" d="M201.316 156.889H198.952V159.249H201.316V156.889Z" fill="#415659"/>
<path opacity="0.4" d="M201.316 153.905H198.952V156.264H201.316V153.905Z" fill="#415659"/>
<path opacity="0.4" d="M201.316 150.921H198.952V153.27H201.316V150.921Z" fill="#415659"/>
<path opacity="0.4" d="M201.316 149.926H198.952V152.285H201.316V149.926Z" fill="#415659"/>
<path opacity="0.4" d="M201.316 146.942H198.952V149.302H201.316V146.942Z" fill="#415659"/>
<path opacity="0.4" d="M201.316 143.957H198.952V146.316H201.316V143.957Z" fill="#415659"/>
<path opacity="0.4" d="M201.316 142.961H198.952V145.321H201.316V142.961Z" fill="#415659"/>
<path opacity="0.4" d="M199.337 191.705H196.962V194.065H199.337V191.705Z" fill="#415659"/>
<path opacity="0.4" d="M199.337 190.711H196.962V193.07H199.337V190.711Z" fill="#415659"/>
<path opacity="0.4" d="M199.337 187.726H196.962V190.097H199.337V187.726Z" fill="#415659"/>
<path opacity="0.4" d="M199.337 184.743H196.962V187.102H199.337V184.743Z" fill="#415659"/>
<path opacity="0.4" d="M199.337 183.747H196.962V186.107H199.337V183.747Z" fill="#415659"/>
<path opacity="0.4" d="M199.337 180.763H196.962V183.122H199.337V180.763Z" fill="#415659"/>
<path opacity="0.4" d="M199.337 177.779H196.962V180.127H199.337V177.779Z" fill="#415659"/>
<path opacity="0.4" d="M199.337 174.795H196.962V177.154H199.337V174.795Z" fill="#415659"/>
<path opacity="0.4" d="M199.337 173.8H196.962V176.16H199.337V173.8Z" fill="#415659"/>
<path opacity="0.4" d="M199.337 170.815H196.962V173.175H199.337V170.815Z" fill="#415659"/>
<path opacity="0.4" d="M199.337 167.832H196.962V170.192H199.337V167.832Z" fill="#415659"/>
<path opacity="0.4" d="M199.337 166.836H196.962V169.196H199.337V166.836Z" fill="#415659"/>
<path opacity="0.4" d="M199.337 163.852H196.962V166.212H199.337V163.852Z" fill="#415659"/>
<path opacity="0.4" d="M199.337 160.868H196.962V163.239H199.337V160.868Z" fill="#415659"/>
<path opacity="0.4" d="M199.337 158.878H196.962V161.238H199.337V158.878Z" fill="#415659"/>
<path opacity="0.4" d="M199.337 156.889H196.962V159.249H199.337V156.889Z" fill="#415659"/>
<path opacity="0.4" d="M199.337 153.905H196.962V156.264H199.337V153.905Z" fill="#415659"/>
<path opacity="0.4" d="M199.337 150.921H196.962V153.27H199.337V150.921Z" fill="#415659"/>
<path opacity="0.4" d="M199.337 149.926H196.962V152.285H199.337V149.926Z" fill="#415659"/>
<path opacity="0.4" d="M199.337 146.942H196.962V149.302H199.337V146.942Z" fill="#415659"/>
<path opacity="0.4" d="M199.337 143.957H196.962V146.316H199.337V143.957Z" fill="#415659"/>
<path opacity="0.4" d="M199.337 142.961H196.962V145.321H199.337V142.961Z" fill="#415659"/>
<path opacity="0.4" d="M197.337 191.705H194.973V194.065H197.337V191.705Z" fill="#415659"/>
<path opacity="0.4" d="M197.337 190.711H194.973V193.07H197.337V190.711Z" fill="#415659"/>
<path opacity="0.4" d="M197.337 187.726H194.973V190.097H197.337V187.726Z" fill="#415659"/>
<path opacity="0.4" d="M197.337 184.743H194.973V187.102H197.337V184.743Z" fill="#415659"/>
<path opacity="0.4" d="M197.337 183.747H194.973V186.107H197.337V183.747Z" fill="#415659"/>
<path opacity="0.4" d="M197.337 180.763H194.973V183.122H197.337V180.763Z" fill="#415659"/>
<path opacity="0.4" d="M197.337 177.779H194.973V180.127H197.337V177.779Z" fill="#415659"/>
<path opacity="0.4" d="M197.337 174.795H194.973V177.154H197.337V174.795Z" fill="#415659"/>
<path opacity="0.4" d="M197.337 173.8H194.973V176.16H197.337V173.8Z" fill="#415659"/>
<path opacity="0.4" d="M197.337 170.815H194.973V173.175H197.337V170.815Z" fill="#415659"/>
<path opacity="0.4" d="M197.337 167.832H194.973V170.192H197.337V167.832Z" fill="#415659"/>
<path opacity="0.4" d="M197.337 166.836H194.973V169.196H197.337V166.836Z" fill="#415659"/>
<path opacity="0.4" d="M197.337 163.852H194.973V166.212H197.337V163.852Z" fill="#415659"/>
<path opacity="0.4" d="M197.337 160.868H194.973V163.239H197.337V160.868Z" fill="#415659"/>
<path opacity="0.4" d="M197.337 158.878H194.973V161.238H197.337V158.878Z" fill="#415659"/>
<path opacity="0.4" d="M197.337 156.889H194.973V159.249H197.337V156.889Z" fill="#415659"/>
<path opacity="0.4" d="M197.337 153.905H194.973V156.264H197.337V153.905Z" fill="#415659"/>
<path opacity="0.4" d="M197.337 150.921H194.973V153.27H197.337V150.921Z" fill="#415659"/>
<path opacity="0.4" d="M197.337 149.926H194.973V152.285H197.337V149.926Z" fill="#415659"/>
<path opacity="0.4" d="M197.337 146.942H194.973V149.302H197.337V146.942Z" fill="#415659"/>
<path opacity="0.4" d="M197.337 143.957H194.973V146.316H197.337V143.957Z" fill="#415659"/>
<path opacity="0.4" d="M197.337 142.961H194.973V145.321H197.337V142.961Z" fill="#415659"/>
<path opacity="0.4" d="M194.353 191.705H191.989V194.065H194.353V191.705Z" fill="#415659"/>
<path opacity="0.4" d="M194.353 190.711H191.989V193.07H194.353V190.711Z" fill="#415659"/>
<path opacity="0.4" d="M194.353 187.726H191.989V190.097H194.353V187.726Z" fill="#415659"/>
<path opacity="0.4" d="M194.353 184.743H191.989V187.102H194.353V184.743Z" fill="#415659"/>
<path opacity="0.4" d="M194.353 183.747H191.989V186.107H194.353V183.747Z" fill="#415659"/>
<path opacity="0.4" d="M194.353 180.763H191.989V183.122H194.353V180.763Z" fill="#415659"/>
<path opacity="0.4" d="M194.353 177.779H191.989V180.127H194.353V177.779Z" fill="#415659"/>
<path opacity="0.4" d="M194.353 174.795H191.989V177.154H194.353V174.795Z" fill="#415659"/>
<path opacity="0.4" d="M194.353 173.8H191.989V176.16H194.353V173.8Z" fill="#415659"/>
<path opacity="0.4" d="M194.353 170.815H191.989V173.175H194.353V170.815Z" fill="#415659"/>
<path opacity="0.4" d="M194.353 167.832H191.989V170.192H194.353V167.832Z" fill="#415659"/>
<path opacity="0.4" d="M194.353 166.836H191.989V169.196H194.353V166.836Z" fill="#415659"/>
<path opacity="0.4" d="M194.353 163.852H191.989V166.212H194.353V163.852Z" fill="#415659"/>
<path opacity="0.4" d="M194.353 160.868H191.989V163.239H194.353V160.868Z" fill="#415659"/>
<path opacity="0.4" d="M194.353 158.878H191.989V161.238H194.353V158.878Z" fill="#415659"/>
<path opacity="0.4" d="M194.353 156.889H191.989V159.249H194.353V156.889Z" fill="#415659"/>
<path opacity="0.4" d="M194.353 153.905H191.989V156.264H194.353V153.905Z" fill="#415659"/>
<path opacity="0.4" d="M194.353 150.921H191.989V153.27H194.353V150.921Z" fill="#415659"/>
<path opacity="0.4" d="M194.353 149.926H191.989V152.285H194.353V149.926Z" fill="#415659"/>
<path opacity="0.4" d="M194.353 146.942H191.989V149.302H194.353V146.942Z" fill="#415659"/>
<path opacity="0.4" d="M194.353 143.957H191.989V146.316H194.353V143.957Z" fill="#415659"/>
<path opacity="0.4" d="M194.353 142.961H191.989V145.321H194.353V142.961Z" fill="#415659"/>
<path opacity="0.4" d="M187.015 147.8V136.993H197.73" stroke="#415659" stroke-width="1.8662" stroke-miterlimit="10"/>
<path opacity="0.4" d="M248.463 146.806V135.999H237.748" stroke="#415659" stroke-width="1.8662" stroke-miterlimit="10"/>
<path opacity="0.4" d="M187.015 189.715V200.522H197.73" stroke="#415659" stroke-width="1.8662" stroke-miterlimit="10"/>
<path opacity="0.4" d="M248.463 189.715V200.522H237.748" stroke="#415659" stroke-width="1.8662" stroke-miterlimit="10"/>
<path opacity="0.4" d="M226.137 219.954H185.729C183.143 219.954 181.046 217.862 181.046 215.28C181.046 212.698 183.143 210.605 185.729 210.605H225.792" fill="#415659"/>
<path opacity="0.4" d="M225.811 210.605H247.398C249.984 210.605 252.081 212.698 252.081 215.28C252.081 217.862 249.984 219.954 247.398 219.954H226.157" fill="#415659"/>
<path opacity="0.4" d="M274.554 172.805C274.554 172.805 276.092 175.921 278.122 180.707C279.148 183.088 280.296 185.893 281.489 188.909C282.069 190.423 282.704 191.97 283.295 193.572C283.897 195.164 284.5 196.789 285.102 198.403C285.681 200.028 286.272 201.653 286.841 203.255C287.421 204.858 287.945 206.449 288.469 207.974C289.517 211.046 290.443 213.928 291.201 216.41C292.74 221.363 293.587 224.735 293.587 224.735C293.587 224.735 292.048 221.619 290.019 216.833C288.993 214.452 287.845 211.647 286.652 208.631C286.072 207.117 285.436 205.57 284.845 203.967C284.243 202.376 283.641 200.751 283.039 199.137C282.459 197.512 281.868 195.887 281.3 194.285C280.72 192.682 280.196 191.091 279.672 189.566C278.635 186.494 277.698 183.612 276.94 181.13C275.401 176.177 274.554 172.805 274.554 172.805Z" fill="#415659"/>
<path opacity="0.4" d="M261.8 166.836L274.589 167.727C276.518 167.86 278.246 168.584 279.651 169.708C281.881 171.511 283.23 174.338 283.018 177.398C282.996 177.632 282.985 177.866 282.94 178.088L297.301 225.434C297.301 225.434 297.156 227.993 296.956 232.312C296.945 232.323 296.945 232.323 296.945 232.334C296.064 249.451 293.901 294.326 293.878 319.623C293.867 326.635 294.023 332.155 294.414 335.149H243.369V328.015C243.369 328.004 243.357 328.004 243.346 327.993C243.324 327.959 243.302 327.948 243.291 327.926C232.575 310.653 225.551 289.918 223.287 274.059C222.975 272.022 222.774 270.063 222.652 268.182C222.641 268.127 222.641 268.071 222.618 268.004C222.317 264.91 221.035 257.431 220.11 252.189C219.563 249.106 219.14 246.802 219.095 246.613C219.095 246.602 219.095 246.602 219.095 246.602L201.433 222.562L199.081 219.368C195.501 214.516 196.572 207.693 201.433 204.132C203.384 202.696 205.648 202.017 207.9 202.017C211.268 202.017 214.579 203.564 216.72 206.469L220.11 211.099L225.952 219.045L228.539 222.562L234.716 230.976L240.581 238.978C240.581 238.978 240.603 238.99 240.615 239.023C241.15 239.524 248.542 246.124 254.563 236.53C254.608 235.573 254.664 234.616 254.775 233.681C256.626 214.527 268.389 200.247 268.389 200.247L263.818 185.178L261.755 185.033" fill="#414659"/>
<path opacity="0.4" d="M232.774 475.171H298.281V321.538C281.321 307.17 232.774 341.694 232.774 341.694V475.171Z" fill="#938DD3"/>
<path opacity="0.4" d="M298.281 326.992C298.281 326.992 283.25 462.584 232.774 475.539H298.281V326.992Z" fill="#5E598B"/>
</g>
<path d="M245.809 168.77L243.423 167.713L236.722 164.741L226.453 160.212C226.308 160.145 226.174 160.078 226.04 159.978L217.789 158.698L217.198 158.609C216.005 158.665 214.89 158.698 213.82 158.698C209.393 158.698 205.97 158.175 203.35 157.329C200.261 156.338 198.266 154.869 196.994 153.244C193.248 148.47 195.857 142.293 195.857 142.293L223.454 139.978L232.719 141.313L232.864 141.302C233.5 141.302 234.113 141.413 234.693 141.669L245.207 146.333" fill="#F9CDA5"/>
<path d="M242.885 222.275L245.672 179.471L244.702 180.918C244.702 175.175 240.532 168.608 236.752 164.846L243.454 167.807L251.147 171.213L256.488 188.831C256.499 188.831 244.736 203.121 242.885 222.275Z" fill="#CE926A"/>
<path d="M207.368 257.982H180.981C171.126 257.982 163.141 250.244 163.141 240.694V104.542C163.141 94.9924 171.126 87.2549 180.981 87.2549H207.368" fill="#030307"/>
<path d="M205.916 87.2551H232.285C241.863 87.2551 249.624 95.0013 249.624 104.562V240.866C249.624 250.426 241.863 258.172 232.285 258.172H205.916" fill="#0B0914"/>
<path d="M244.336 106.155H168.114V229.482H244.336V106.155Z" fill="white"/>
<path d="M216.381 242.505C216.381 246.935 212.702 250.53 208.164 250.53C203.626 250.53 199.946 246.935 199.946 242.505C199.946 238.075 203.626 234.48 208.164 234.48C212.702 234.48 216.381 238.075 216.381 242.505Z" fill="#2C2A3F"/>
<path d="M241.198 99.7289C241.198 101.12 240.061 102.255 238.667 102.255H177.609C176.215 102.255 175.078 101.12 175.078 99.7289C175.078 98.3377 176.215 97.2024 177.609 97.2024H238.667C240.072 97.2024 241.198 98.3377 241.198 99.7289Z" fill="#2C2A3F"/>
<path d="M232.153 180.761H229.79V183.121H232.153V180.761Z" fill="white"/>
<path d="M232.153 177.777H229.79V180.136H232.153V177.777Z" fill="white"/>
<path d="M232.153 174.792H229.79V177.163H232.153V174.792Z" fill="white"/>
<path d="M232.153 173.798H229.79V176.157H232.153V173.798Z" fill="white"/>
<path d="M232.153 170.813H229.79V173.173H232.153V170.813Z" fill="white"/>
<path d="M232.153 167.83H229.79V170.189H232.153V167.83Z" fill="white"/>
<path d="M232.153 166.834H229.79V169.182H232.153V166.834Z" fill="white"/>
<path d="M232.153 164.845H229.79V167.204H232.153V164.845Z" fill="white"/>
<path d="M232.153 161.86H229.79V164.22H232.153V161.86Z" fill="white"/>
<path d="M232.153 159.87H229.79V162.23H232.153V159.87Z" fill="white"/>
<path d="M232.153 157.881H229.79V160.241H232.153V157.881Z" fill="white"/>
<path d="M232.153 154.898H229.79V157.257H232.153V154.898Z" fill="white"/>
<path d="M232.153 151.913H229.79V154.273H232.153V151.913Z" fill="white"/>
<path d="M232.153 150.919H229.79V153.289H232.153V150.919Z" fill="white"/>
<path d="M232.153 147.934H229.79V150.294H232.153V147.934Z" fill="white"/>
<path d="M232.153 144.95H229.79V147.309H232.153V144.95Z" fill="white"/>
<path d="M232.153 142.96H229.79V145.319H232.153V142.96Z" fill="white"/>
<path d="M232.153 140.971H229.79V143.319H232.153V140.971Z" fill="white"/>
<path d="M232.153 137.987H229.79V140.347H232.153V137.987Z" fill="white"/>
<path d="M232.153 135.002H229.79V137.362H232.153V135.002Z" fill="white"/>
<path d="M232.153 134.008H229.79V136.368H232.153V134.008Z" fill="white"/>
<path d="M232.153 131.023H229.79V133.383H232.153V131.023Z" fill="white"/>
<path d="M229.169 180.761H226.805V183.121H229.169V180.761Z" fill="white"/>
<path d="M229.169 177.777H226.805V180.136H229.169V177.777Z" fill="black"/>
<path d="M229.169 174.792H226.805V177.163H229.169V174.792Z" fill="black"/>
<path d="M229.169 173.798H226.805V176.157H229.169V173.798Z" fill="black"/>
<path d="M229.169 170.813H226.805V173.173H229.169V170.813Z" fill="white"/>
<path d="M229.169 167.83H226.805V170.189H229.169V167.83Z" fill="black"/>
<path d="M229.169 166.834H226.805V169.182H229.169V166.834Z" fill="black"/>
<path d="M229.169 164.845H226.805V167.204H229.169V164.845Z" fill="black"/>
<path d="M229.169 161.86H226.805V164.22H229.169V161.86Z" fill="black"/>
<path d="M229.169 159.87H226.805V162.23H229.169V159.87Z" fill="white"/>
<path d="M229.169 157.881H226.805V160.241H229.169V157.881Z" fill="black"/>
<path d="M229.169 154.898H226.805V157.257H229.169V154.898Z" fill="black"/>
<path d="M229.169 151.913H226.805V154.273H229.169V151.913Z" fill="white"/>
<path d="M229.169 150.919H226.805V153.289H229.169V150.919Z" fill="black"/>
<path d="M229.169 147.934H226.805V150.294H229.169V147.934Z" fill="black"/>
<path d="M229.169 144.95H226.805V147.309H229.169V144.95Z" fill="white"/>
<path d="M229.169 142.96H226.805V145.319H229.169V142.96Z" fill="black"/>
<path d="M229.169 140.971H226.805V143.319H229.169V140.971Z" fill="black"/>
<path d="M229.169 137.987H226.805V140.347H229.169V137.987Z" fill="black"/>
<path d="M229.169 135.002H226.805V137.362H229.169V135.002Z" fill="black"/>
<path d="M229.169 134.008H226.805V136.368H229.169V134.008Z" fill="black"/>
<path d="M229.169 131.023H226.805V133.383H229.169V131.023Z" fill="white"/>
<path d="M226.196 180.761H223.821V183.121H226.196V180.761Z" fill="white"/>
<path d="M226.196 177.777H223.821V180.136H226.196V177.777Z" fill="white"/>
<path d="M226.196 174.792H223.821V177.163H226.196V174.792Z" fill="white"/>
<path d="M226.196 173.798H223.821V176.157H226.196V173.798Z" fill="white"/>
<path d="M226.196 170.813H223.821V173.173H226.196V170.813Z" fill="black"/>
<path d="M226.196 167.83H223.821V170.189H226.196V167.83Z" fill="white"/>
<path d="M226.196 166.834H223.821V169.182H226.196V166.834Z" fill="white"/>
<path d="M226.196 164.845H223.821V167.204H226.196V164.845Z" fill="white"/>
<path d="M226.196 161.86H223.821V164.22H226.196V161.86Z" fill="black"/>
<path d="M226.196 159.87H223.821V162.23H226.196V159.87Z" fill="white"/>
<path d="M226.196 157.881H223.821V160.241H226.196V157.881Z" fill="white"/>
<path d="M226.196 154.898H223.821V157.257H226.196V154.898Z" fill="black"/>
<path d="M226.196 151.913H223.821V154.273H226.196V151.913Z" fill="white"/>
<path d="M226.196 150.919H223.821V153.289H226.196V150.919Z" fill="black"/>
<path d="M226.196 147.934H223.821V150.294H226.196V147.934Z" fill="white"/>
<path d="M226.196 144.95H223.821V147.309H226.196V144.95Z" fill="white"/>
<path d="M226.196 142.96H223.821V145.319H226.196V142.96Z" fill="black"/>
<path d="M226.196 140.971H223.821V143.319H226.196V140.971Z" fill="white"/>
<path d="M226.196 137.987H223.821V140.347H226.196V137.987Z" fill="white"/>
<path d="M226.196 135.002H223.821V137.362H226.196V135.002Z" fill="white"/>
<path d="M226.196 134.008H223.821V136.368H226.196V134.008Z" fill="black"/>
<path d="M226.196 131.023H223.821V133.383H226.196V131.023Z" fill="white"/>
<path d="M225.189 180.761H222.826V183.121H225.189V180.761Z" fill="white"/>
<path d="M225.189 177.777H222.826V180.136H225.189V177.777Z" fill="black"/>
<path d="M225.189 174.792H222.826V177.163H225.189V174.792Z" fill="white"/>
<path d="M225.189 173.798H222.826V176.157H225.189V173.798Z" fill="black"/>
<path d="M225.189 170.813H222.826V173.173H225.189V170.813Z" fill="white"/>
<path d="M225.189 167.83H222.826V170.189H225.189V167.83Z" fill="black"/>
<path d="M225.189 166.834H222.826V169.182H225.189V166.834Z" fill="white"/>
<path d="M225.189 164.845H222.826V167.204H225.189V164.845Z" fill="white"/>
<path d="M225.189 161.86H222.826V164.22H225.189V161.86Z" fill="black"/>
<path d="M225.189 159.87H222.826V162.23H225.189V159.87Z" fill="black"/>
<path d="M225.189 157.881H222.826V160.241H225.189V157.881Z" fill="black"/>
<path d="M225.189 154.898H222.826V157.257H225.189V154.898Z" fill="black"/>
<path d="M225.189 151.913H222.826V154.273H225.189V151.913Z" fill="black"/>
<path d="M225.189 150.919H222.826V153.289H225.189V150.919Z" fill="black"/>
<path d="M225.189 147.934H222.826V150.294H225.189V147.934Z" fill="white"/>
<path d="M225.189 144.95H222.826V147.309H225.189V144.95Z" fill="white"/>
<path d="M225.189 142.96H222.826V145.319H225.189V142.96Z" fill="black"/>
<path d="M225.189 140.971H222.826V143.319H225.189V140.971Z" fill="white"/>
<path d="M225.189 137.987H222.826V140.347H225.189V137.987Z" fill="black"/>
<path d="M225.189 135.002H222.826V137.362H225.189V135.002Z" fill="white"/>
<path d="M225.189 134.008H222.826V136.368H225.189V134.008Z" fill="black"/>
<path d="M225.189 131.023H222.826V133.383H225.189V131.023Z" fill="white"/>
<path d="M223.2 180.761H220.836V183.121H223.2V180.761Z" fill="white"/>
<path d="M223.2 177.777H220.836V180.136H223.2V177.777Z" fill="black"/>
<path d="M223.2 174.792H220.836V177.163H223.2V174.792Z" fill="white"/>
<path d="M223.2 173.798H220.836V176.157H223.2V173.798Z" fill="white"/>
<path d="M223.2 170.813H220.836V173.173H223.2V170.813Z" fill="white"/>
<path d="M223.2 167.83H220.836V170.189H223.2V167.83Z" fill="white"/>
<path d="M223.2 166.834H220.836V169.182H223.2V166.834Z" fill="white"/>
<path d="M223.2 164.845H220.836V167.204H223.2V164.845Z" fill="white"/>
<path d="M223.2 161.86H220.836V164.22H223.2V161.86Z" fill="white"/>
<path d="M223.2 159.87H220.836V162.23H223.2V159.87Z" fill="white"/>
<path d="M223.2 157.881H220.836V160.241H223.2V157.881Z" fill="white"/>
<path d="M223.2 154.898H220.836V157.257H223.2V154.898Z" fill="white"/>
<path d="M223.2 151.913H220.836V154.273H223.2V151.913Z" fill="white"/>
<path d="M223.2 150.919H220.836V153.289H223.2V150.919Z" fill="black"/>
<path d="M223.2 147.934H220.836V150.294H223.2V147.934Z" fill="white"/>
<path d="M223.2 144.95H220.836V147.309H223.2V144.95Z" fill="white"/>
<path d="M223.2 142.96H220.836V145.319H223.2V142.96Z" fill="black"/>
<path d="M223.2 140.971H220.836V143.319H223.2V140.971Z" fill="white"/>
<path d="M223.2 137.987H220.836V140.347H223.2V137.987Z" fill="white"/>
<path d="M223.2 135.002H220.836V137.362H223.2V135.002Z" fill="white"/>
<path d="M223.2 134.008H220.836V136.368H223.2V134.008Z" fill="black"/>
<path d="M223.2 131.023H220.836V133.383H223.2V131.023Z" fill="white"/>
<path d="M220.216 180.761H217.853V183.121H220.216V180.761Z" fill="white"/>
<path d="M220.216 177.777H217.853V180.136H220.216V177.777Z" fill="black"/>
<path d="M220.216 174.792H217.853V177.163H220.216V174.792Z" fill="white"/>
<path d="M220.216 173.798H217.853V176.157H220.216V173.798Z" fill="black"/>
<path d="M220.216 170.813H217.853V173.173H220.216V170.813Z" fill="white"/>
<path d="M220.216 167.83H217.853V170.189H220.216V167.83Z" fill="white"/>
<path d="M220.216 166.834H217.853V169.182H220.216V166.834Z" fill="white"/>
<path d="M220.216 164.845H217.853V167.204H220.216V164.845Z" fill="white"/>
<path d="M220.216 161.86H217.853V164.22H220.216V161.86Z" fill="white"/>
<path d="M220.216 159.87H217.853V162.23H220.216V159.87Z" fill="white"/>
<path d="M220.216 157.881H217.853V160.241H220.216V157.881Z" fill="black"/>
<path d="M220.216 154.898H217.853V157.257H220.216V154.898Z" fill="black"/>
<path d="M220.216 151.913H217.853V154.273H220.216V151.913Z" fill="white"/>
<path d="M220.216 150.919H217.853V153.289H220.216V150.919Z" fill="black"/>
<path d="M220.216 147.934H217.853V150.294H220.216V147.934Z" fill="black"/>
<path d="M220.216 144.95H217.853V147.309H220.216V144.95Z" fill="white"/>
<path d="M220.216 142.96H217.853V145.319H220.216V142.96Z" fill="black"/>
<path d="M220.216 140.971H217.853V143.319H220.216V140.971Z" fill="black"/>
<path d="M220.216 137.987H217.853V140.347H220.216V137.987Z" fill="black"/>
<path d="M220.216 135.002H217.853V137.362H220.216V135.002Z" fill="black"/>
<path d="M220.216 134.008H217.853V136.368H220.216V134.008Z" fill="black"/>
<path d="M220.216 131.023H217.853V133.383H220.216V131.023Z" fill="white"/>
<path d="M219.221 180.761H216.857V183.121H219.221V180.761Z" fill="white"/>
<path d="M219.221 177.777H216.857V180.136H219.221V177.777Z" fill="black"/>
<path d="M219.221 174.792H216.857V177.163H219.221V174.792Z" fill="white"/>
<path d="M219.221 173.798H216.857V176.157H219.221V173.798Z" fill="black"/>
<path d="M219.221 170.813H216.857V173.173H219.221V170.813Z" fill="white"/>
<path d="M219.221 167.83H216.857V170.189H219.221V167.83Z" fill="white"/>
<path d="M219.221 166.834H216.857V169.182H219.221V166.834Z" fill="black"/>
<path d="M219.221 164.845H216.857V167.204H219.221V164.845Z" fill="black"/>
<path d="M219.221 161.86H216.857V164.22H219.221V161.86Z" fill="white"/>
<path d="M219.221 159.87H216.857V162.23H219.221V159.87Z" fill="white"/>
<path d="M219.221 157.881H216.857V160.241H219.221V157.881Z" fill="black"/>
<path d="M219.221 154.898H216.857V157.257H219.221V154.898Z" fill="white"/>
<path d="M219.221 151.913H216.857V154.273H219.221V151.913Z" fill="white"/>
<path d="M219.221 150.919H216.857V153.289H219.221V150.919Z" fill="white"/>
<path d="M219.221 147.934H216.857V150.294H219.221V147.934Z" fill="white"/>
<path d="M219.221 144.95H216.857V147.309H219.221V144.95Z" fill="white"/>
<path d="M219.221 142.96H216.857V145.319H219.221V142.96Z" fill="white"/>
<path d="M219.221 140.971H216.857V143.319H219.221V140.971Z" fill="white"/>
<path d="M219.221 137.987H216.857V140.347H219.221V137.987Z" fill="white"/>
<path d="M219.221 135.002H216.857V137.362H219.221V135.002Z" fill="white"/>
<path d="M219.221 134.008H216.857V136.368H219.221V134.008Z" fill="white"/>
<path d="M219.221 131.023H216.857V133.383H219.221V131.023Z" fill="white"/>
<path d="M216.237 180.761H213.873V183.121H216.237V180.761Z" fill="white"/>
<path d="M216.237 177.777H213.873V180.136H216.237V177.777Z" fill="black"/>
<path d="M216.237 174.792H213.873V177.163H216.237V174.792Z" fill="white"/>
<path d="M216.237 173.798H213.873V176.157H216.237V173.798Z" fill="black"/>
<path d="M216.237 170.813H213.873V173.173H216.237V170.813Z" fill="white"/>
<path d="M216.237 167.83H213.873V170.189H216.237V167.83Z" fill="black"/>
<path d="M216.237 166.834H213.873V169.182H216.237V166.834Z" fill="black"/>
<path d="M216.237 164.845H213.873V167.204H216.237V164.845Z" fill="black"/>
<path d="M216.237 161.86H213.873V164.22H216.237V161.86Z" fill="black"/>
<path d="M216.237 159.87H213.873V162.23H216.237V159.87Z" fill="white"/>
<path d="M216.237 157.881H213.873V160.241H216.237V157.881Z" fill="black"/>
<path d="M216.237 154.898H213.873V157.257H216.237V154.898Z" fill="black"/>
<path d="M216.237 151.913H213.873V154.273H216.237V151.913Z" fill="white"/>
<path d="M216.237 150.919H213.873V153.289H216.237V150.919Z" fill="white"/>
<path d="M216.237 147.934H213.873V150.294H216.237V147.934Z" fill="black"/>
<path d="M216.237 144.95H213.873V147.309H216.237V144.95Z" fill="white"/>
<path d="M216.237 142.96H213.873V145.319H216.237V142.96Z" fill="white"/>
<path d="M216.237 140.971H213.873V143.319H216.237V140.971Z" fill="black"/>
<path d="M216.237 137.987H213.873V140.347H216.237V137.987Z" fill="white"/>
<path d="M216.237 135.002H213.873V137.362H216.237V135.002Z" fill="white"/>
<path d="M216.237 134.008H213.873V136.368H216.237V134.008Z" fill="black"/>
<path d="M216.237 131.023H213.873V133.383H216.237V131.023Z" fill="white"/>
<path d="M213.264 180.761H210.889V183.121H213.264V180.761Z" fill="white"/>
<path d="M213.264 177.777H210.889V180.136H213.264V177.777Z" fill="white"/>
<path d="M213.264 174.792H210.889V177.163H213.264V174.792Z" fill="white"/>
<path d="M213.264 173.798H210.889V176.157H213.264V173.798Z" fill="black"/>
<path d="M213.264 170.813H210.889V173.173H213.264V170.813Z" fill="white"/>
<path d="M213.264 167.83H210.889V170.189H213.264V167.83Z" fill="black"/>
<path d="M213.264 166.834H210.889V169.182H213.264V166.834Z" fill="white"/>
<path d="M213.264 164.845H210.889V167.204H213.264V164.845Z" fill="white"/>
<path d="M213.264 161.86H210.889V164.22H213.264V161.86Z" fill="black"/>
<path d="M213.264 159.87H210.889V162.23H213.264V159.87Z" fill="white"/>
<path d="M213.264 157.881H210.889V160.241H213.264V157.881Z" fill="white"/>
<path d="M213.264 154.898H210.889V157.257H213.264V154.898Z" fill="white"/>
<path d="M213.264 151.913H210.889V154.273H213.264V151.913Z" fill="white"/>
<path d="M213.264 150.919H210.889V153.289H213.264V150.919Z" fill="white"/>
<path d="M213.264 147.934H210.889V150.294H213.264V147.934Z" fill="black"/>
<path d="M213.264 144.95H210.889V147.309H213.264V144.95Z" fill="black"/>
<path d="M213.264 142.96H210.889V145.319H213.264V142.96Z" fill="white"/>
<path d="M213.264 140.971H210.889V143.319H213.264V140.971Z" fill="white"/>
<path d="M213.264 137.987H210.889V140.347H213.264V137.987Z" fill="black"/>
<path d="M213.264 135.002H210.889V137.362H213.264V135.002Z" fill="black"/>
<path d="M213.264 134.008H210.889V136.368H213.264V134.008Z" fill="black"/>
<path d="M213.264 131.023H210.889V133.383H213.264V131.023Z" fill="white"/>
<path d="M211.264 180.761H208.9V183.121H211.264V180.761Z" fill="white"/>
<path d="M211.264 177.777H208.9V180.136H211.264V177.777Z" fill="black"/>
<path d="M211.264 174.792H208.9V177.163H211.264V174.792Z" fill="white"/>
<path d="M211.264 173.798H208.9V176.157H211.264V173.798Z" fill="white"/>
<path d="M211.264 170.813H208.9V173.173H211.264V170.813Z" fill="white"/>
<path d="M211.264 167.83H208.9V170.189H211.264V167.83Z" fill="white"/>
<path d="M211.264 166.834H208.9V169.182H211.264V166.834Z" fill="black"/>
<path d="M211.264 164.845H208.9V167.204H211.264V164.845Z" fill="white"/>
<path d="M211.264 161.86H208.9V164.22H211.264V161.86Z" fill="white"/>
<path d="M211.264 159.87H208.9V162.23H211.264V159.87Z" fill="black"/>
<path d="M211.264 157.881H208.9V160.241H211.264V157.881Z" fill="black"/>
<path d="M211.264 154.898H208.9V157.257H211.264V154.898Z" fill="black"/>
<path d="M211.264 151.913H208.9V154.273H211.264V151.913Z" fill="black"/>
<path d="M211.264 150.919H208.9V153.289H211.264V150.919Z" fill="white"/>
<path d="M211.264 147.934H208.9V150.294H211.264V147.934Z" fill="black"/>
<path d="M211.264 144.95H208.9V147.309H211.264V144.95Z" fill="white"/>
<path d="M211.264 142.96H208.9V145.319H211.264V142.96Z" fill="black"/>
<path d="M211.264 140.971H208.9V143.319H211.264V140.971Z" fill="white"/>
<path d="M211.264 137.987H208.9V140.347H211.264V137.987Z" fill="black"/>
<path d="M211.264 135.002H208.9V137.362H211.264V135.002Z" fill="white"/>
<path d="M211.264 134.008H208.9V136.368H211.264V134.008Z" fill="black"/>
<path d="M211.264 131.023H208.9V133.383H211.264V131.023Z" fill="white"/>
<path d="M209.274 180.761H206.91V183.121H209.274V180.761Z" fill="white"/>
<path d="M209.274 177.777H206.91V180.136H209.274V177.777Z" fill="white"/>
<path d="M209.274 174.792H206.91V177.163H209.274V174.792Z" fill="black"/>
<path d="M209.274 173.798H206.91V176.157H209.274V173.798Z" fill="black"/>
<path d="M209.274 170.813H206.91V173.173H209.274V170.813Z" fill="black"/>
<path d="M209.274 167.83H206.91V170.189H209.274V167.83Z" fill="black"/>
<path d="M209.274 166.834H206.91V169.182H209.274V166.834Z" fill="black"/>
<path d="M209.274 164.845H206.91V167.204H209.274V164.845Z" fill="white"/>
<path d="M209.274 161.86H206.91V164.22H209.274V161.86Z" fill="white"/>
<path d="M209.274 159.87H206.91V162.23H209.274V159.87Z" fill="white"/>
<path d="M209.274 157.881H206.91V160.241H209.274V157.881Z" fill="white"/>
<path d="M209.274 154.898H206.91V157.257H209.274V154.898Z" fill="white"/>
<path d="M209.274 151.913H206.91V154.273H209.274V151.913Z" fill="white"/>
<path d="M209.274 150.919H206.91V153.289H209.274V150.919Z" fill="white"/>
<path d="M209.274 147.934H206.91V150.294H209.274V147.934Z" fill="white"/>
<path d="M209.274 144.95H206.91V147.309H209.274V144.95Z" fill="white"/>
<path d="M209.274 142.96H206.91V145.319H209.274V142.96Z" fill="white"/>
<path d="M209.274 140.971H206.91V143.319H209.274V140.971Z" fill="white"/>
<path d="M209.274 137.987H206.91V140.347H209.274V137.987Z" fill="white"/>
<path d="M209.274 135.002H206.91V137.362H209.274V135.002Z" fill="white"/>
<path d="M209.274 134.008H206.91V136.368H209.274V134.008Z" fill="black"/>
<path d="M209.274 131.023H206.91V133.383H209.274V131.023Z" fill="white"/>
<path d="M206.289 180.761H203.925V183.121H206.289V180.761Z" fill="white"/>
<path d="M206.289 177.777H203.925V180.136H206.289V177.777Z" fill="black"/>
<path d="M206.289 174.792H203.925V177.163H206.289V174.792Z" fill="white"/>
<path d="M206.289 173.798H203.925V176.157H206.289V173.798Z" fill="white"/>
<path d="M206.289 170.813H203.925V173.173H206.289V170.813Z" fill="white"/>
<path d="M206.289 167.83H203.925V170.189H206.289V167.83Z" fill="white"/>
<path d="M206.289 166.834H203.925V169.182H206.289V166.834Z" fill="white"/>
<path d="M206.289 164.845H203.925V167.204H206.289V164.845Z" fill="white"/>
<path d="M206.289 161.86H203.925V164.22H206.289V161.86Z" fill="white"/>
<path d="M206.289 159.87H203.925V162.23H206.289V159.87Z" fill="white"/>
<path d="M206.289 157.881H203.925V160.241H206.289V157.881Z" fill="white"/>
<path d="M206.289 154.898H203.925V157.257H206.289V154.898Z" fill="white"/>
<path d="M206.289 151.913H203.925V154.273H206.289V151.913Z" fill="black"/>
<path d="M206.289 150.919H203.925V153.289H206.289V150.919Z" fill="white"/>
<path d="M206.289 147.934H203.925V150.294H206.289V147.934Z" fill="white"/>
<path d="M206.289 144.95H203.925V147.309H206.289V144.95Z" fill="black"/>
<path d="M206.289 142.96H203.925V145.319H206.289V142.96Z" fill="black"/>
<path d="M206.289 140.971H203.925V143.319H206.289V140.971Z" fill="white"/>
<path d="M206.289 137.987H203.925V140.347H206.289V137.987Z" fill="white"/>
<path d="M206.289 135.002H203.925V137.362H206.289V135.002Z" fill="black"/>
<path d="M206.289 134.008H203.925V136.368H206.289V134.008Z" fill="white"/>
<path d="M206.289 131.023H203.925V133.383H206.289V131.023Z" fill="white"/>
<path d="M203.305 180.761H200.941V183.121H203.305V180.761Z" fill="white"/>
<path d="M203.305 177.777H200.941V180.136H203.305V177.777Z" fill="black"/>
<path d="M203.305 174.792H200.941V177.163H203.305V174.792Z" fill="white"/>
<path d="M203.305 173.798H200.941V176.157H203.305V173.798Z" fill="white"/>
<path d="M203.305 170.813H200.941V173.173H203.305V170.813Z" fill="white"/>
<path d="M203.305 167.83H200.941V170.189H203.305V167.83Z" fill="black"/>
<path d="M203.305 166.834H200.941V169.182H203.305V166.834Z" fill="white"/>
<path d="M203.305 164.845H200.941V167.204H203.305V164.845Z" fill="white"/>
<path d="M203.305 161.86H200.941V164.22H203.305V161.86Z" fill="white"/>
<path d="M203.305 159.87H200.941V162.23H203.305V159.87Z" fill="black"/>
<path d="M203.305 157.881H200.941V160.241H203.305V157.881Z" fill="white"/>
<path d="M203.305 154.898H200.941V157.257H203.305V154.898Z" fill="black"/>
<path d="M203.305 151.913H200.941V154.273H203.305V151.913Z" fill="white"/>
<path d="M203.305 150.919H200.941V153.289H203.305V150.919Z" fill="white"/>
<path d="M203.305 147.934H200.941V150.294H203.305V147.934Z" fill="black"/>
<path d="M203.305 144.95H200.941V147.309H203.305V144.95Z" fill="black"/>
<path d="M203.305 142.96H200.941V145.319H203.305V142.96Z" fill="black"/>
<path d="M203.305 140.971H200.941V143.319H203.305V140.971Z" fill="black"/>
<path d="M203.305 137.987H200.941V140.347H203.305V137.987Z" fill="black"/>
<path d="M203.305 135.002H200.941V137.362H203.305V135.002Z" fill="black"/>
<path d="M203.305 134.008H200.941V136.368H203.305V134.008Z" fill="black"/>
<path d="M203.305 131.023H200.941V133.383H203.305V131.023Z" fill="white"/>
<path d="M202.321 180.761H199.946V183.121H202.321V180.761Z" fill="white"/>
<path d="M202.321 177.777H199.946V180.136H202.321V177.777Z" fill="white"/>
<path d="M202.321 174.792H199.946V177.163H202.321V174.792Z" fill="white"/>
<path d="M202.321 173.798H199.946V176.157H202.321V173.798Z" fill="white"/>
<path d="M202.321 170.813H199.946V173.173H202.321V170.813Z" fill="white"/>
<path d="M202.321 167.83H199.946V170.189H202.321V167.83Z" fill="black"/>
<path d="M202.321 166.834H199.946V169.182H202.321V166.834Z" fill="black"/>
<path d="M202.321 164.845H199.946V167.204H202.321V164.845Z" fill="black"/>
<path d="M202.321 161.86H199.946V164.22H202.321V161.86Z" fill="black"/>
<path d="M202.321 159.87H199.946V162.23H202.321V159.87Z" fill="white"/>
<path d="M202.321 157.881H199.946V160.241H202.321V157.881Z" fill="black"/>
<path d="M202.321 154.898H199.946V157.257H202.321V154.898Z" fill="black"/>
<path d="M202.321 151.913H199.946V154.273H202.321V151.913Z" fill="black"/>
<path d="M202.321 150.919H199.946V153.289H202.321V150.919Z" fill="white"/>
<path d="M202.321 147.934H199.946V150.294H202.321V147.934Z" fill="black"/>
<path d="M202.321 144.95H199.946V147.309H202.321V144.95Z" fill="white"/>
<path d="M202.321 142.96H199.946V145.319H202.321V142.96Z" fill="black"/>
<path d="M202.321 140.971H199.946V143.319H202.321V140.971Z" fill="white"/>
<path d="M202.321 137.987H199.946V140.347H202.321V137.987Z" fill="white"/>
<path d="M202.321 135.002H199.946V137.362H202.321V135.002Z" fill="black"/>
<path d="M202.321 134.008H199.946V136.368H202.321V134.008Z" fill="white"/>
<path d="M202.321 131.023H199.946V133.383H202.321V131.023Z" fill="white"/>
<path d="M199.326 180.761H196.962V183.121H199.326V180.761Z" fill="white"/>
<path d="M199.326 177.777H196.962V180.136H199.326V177.777Z" fill="black"/>
<path d="M199.326 174.792H196.962V177.163H199.326V174.792Z" fill="black"/>
<path d="M199.326 173.798H196.962V176.157H199.326V173.798Z" fill="black"/>
<path d="M199.326 170.813H196.962V173.173H199.326V170.813Z" fill="black"/>
<path d="M199.326 167.83H196.962V170.189H199.326V167.83Z" fill="black"/>
<path d="M199.326 166.834H196.962V169.182H199.326V166.834Z" fill="white"/>
<path d="M199.326 164.845H196.962V167.204H199.326V164.845Z" fill="white"/>
<path d="M199.326 161.86H196.962V164.22H199.326V161.86Z" fill="white"/>
<path d="M199.326 159.87H196.962V162.23H199.326V159.87Z" fill="white"/>
<path d="M199.326 157.881H196.962V160.241H199.326V157.881Z" fill="white"/>
<path d="M199.326 154.898H196.962V157.257H199.326V154.898Z" fill="white"/>
<path d="M199.326 151.913H196.962V154.273H199.326V151.913Z" fill="white"/>
<path d="M199.326 150.919H196.962V153.289H199.326V150.919Z" fill="white"/>
<path d="M199.326 147.934H196.962V150.294H199.326V147.934Z" fill="black"/>
<path d="M199.326 144.95H196.962V147.309H199.326V144.95Z" fill="white"/>
<path d="M199.326 142.96H196.962V145.319H199.326V142.96Z" fill="white"/>
<path d="M199.326 140.971H196.962V143.319H199.326V140.971Z" fill="black"/>
<path d="M199.326 137.987H196.962V140.347H199.326V137.987Z" fill="white"/>
<path d="M199.326 135.002H196.962V137.362H199.326V135.002Z" fill="black"/>
<path d="M199.326 134.008H196.962V136.368H199.326V134.008Z" fill="white"/>
<path d="M199.326 131.023H196.962V133.383H199.326V131.023Z" fill="white"/>
<path d="M196.342 180.761H193.978V183.121H196.342V180.761Z" fill="white"/>
<path d="M196.342 177.777H193.978V180.136H196.342V177.777Z" fill="white"/>
<path d="M196.342 174.792H193.978V177.163H196.342V174.792Z" fill="white"/>
<path d="M196.342 173.798H193.978V176.157H196.342V173.798Z" fill="white"/>
<path d="M196.342 170.813H193.978V173.173H196.342V170.813Z" fill="white"/>
<path d="M196.342 167.83H193.978V170.189H196.342V167.83Z" fill="white"/>
<path d="M196.342 166.834H193.978V169.182H196.342V166.834Z" fill="white"/>
<path d="M196.342 164.845H193.978V167.204H196.342V164.845Z" fill="black"/>
<path d="M196.342 161.86H193.978V164.22H196.342V161.86Z" fill="black"/>
<path d="M196.342 159.87H193.978V162.23H196.342V159.87Z" fill="black"/>
<path d="M196.342 157.881H193.978V160.241H196.342V157.881Z" fill="white"/>
<path d="M196.342 154.898H193.978V157.257H196.342V154.898Z" fill="white"/>
<path d="M196.342 151.913H193.978V154.273H196.342V151.913Z" fill="black"/>
<path d="M196.342 150.919H193.978V153.289H196.342V150.919Z" fill="black"/>
<path d="M196.342 147.934H193.978V150.294H196.342V147.934Z" fill="black"/>
<path d="M196.342 144.95H193.978V147.309H196.342V144.95Z" fill="white"/>
<path d="M196.342 142.96H193.978V145.319H196.342V142.96Z" fill="white"/>
<path d="M196.342 140.971H193.978V143.319H196.342V140.971Z" fill="white"/>
<path d="M196.342 137.987H193.978V140.347H196.342V137.987Z" fill="white"/>
<path d="M196.342 135.002H193.978V137.362H196.342V135.002Z" fill="white"/>
<path d="M196.342 134.008H193.978V136.368H196.342V134.008Z" fill="white"/>
<path d="M196.342 131.023H193.978V133.383H196.342V131.023Z" fill="white"/>
<path d="M194.352 180.761H191.988V183.121H194.352V180.761Z" fill="white"/>
<path d="M194.352 177.777H191.988V180.136H194.352V177.777Z" fill="black"/>
<path d="M194.352 174.792H191.988V177.163H194.352V174.792Z" fill="black"/>
<path d="M194.352 173.798H191.988V176.157H194.352V173.798Z" fill="black"/>
<path d="M194.352 170.813H191.988V173.173H194.352V170.813Z" fill="black"/>
<path d="M194.352 167.83H191.988V170.189H194.352V167.83Z" fill="black"/>
<path d="M194.352 166.834H191.988V169.182H194.352V166.834Z" fill="white"/>
<path d="M194.352 164.845H191.988V167.204H194.352V164.845Z" fill="white"/>
<path d="M194.352 161.86H191.988V164.22H194.352V161.86Z" fill="white"/>
<path d="M194.352 159.87H191.988V162.23H194.352V159.87Z" fill="black"/>
<path d="M194.352 157.881H191.988V160.241H194.352V157.881Z" fill="white"/>
<path d="M194.352 154.898H191.988V157.257H194.352V154.898Z" fill="white"/>
<path d="M194.352 151.913H191.988V154.273H194.352V151.913Z" fill="white"/>
<path d="M194.352 150.919H191.988V153.289H194.352V150.919Z" fill="white"/>
<path d="M194.352 147.934H191.988V150.294H194.352V147.934Z" fill="black"/>
<path d="M194.352 144.95H191.988V147.309H194.352V144.95Z" fill="white"/>
<path d="M194.352 142.96H191.988V145.319H194.352V142.96Z" fill="black"/>
<path d="M194.352 140.971H191.988V143.319H194.352V140.971Z" fill="black"/>
<path d="M194.352 137.987H191.988V140.347H194.352V137.987Z" fill="black"/>
<path d="M194.352 135.002H191.988V137.362H194.352V135.002Z" fill="black"/>
<path d="M194.352 134.008H191.988V136.368H194.352V134.008Z" fill="black"/>
<path d="M194.352 131.023H191.988V133.383H194.352V131.023Z" fill="white"/>
<path d="M192.363 180.761H189.999V183.121H192.363V180.761Z" fill="white"/>
<path d="M192.363 177.777H189.999V180.136H192.363V177.777Z" fill="black"/>
<path d="M192.363 174.792H189.999V177.163H192.363V174.792Z" fill="white"/>
<path d="M192.363 173.798H189.999V176.157H192.363V173.798Z" fill="white"/>
<path d="M192.363 170.813H189.999V173.173H192.363V170.813Z" fill="white"/>
<path d="M192.363 167.83H189.999V170.189H192.363V167.83Z" fill="black"/>
<path d="M192.363 166.834H189.999V169.182H192.363V166.834Z" fill="white"/>
<path d="M192.363 164.845H189.999V167.204H192.363V164.845Z" fill="white"/>
<path d="M192.363 161.86H189.999V164.22H192.363V161.86Z" fill="white"/>
<path d="M192.363 159.87H189.999V162.23H192.363V159.87Z" fill="black"/>
<path d="M192.363 157.881H189.999V160.241H192.363V157.881Z" fill="white"/>
<path d="M192.363 154.898H189.999V157.257H192.363V154.898Z" fill="black"/>
<path d="M192.363 151.913H189.999V154.273H192.363V151.913Z" fill="white"/>
<path d="M192.363 150.919H189.999V153.289H192.363V150.919Z" fill="white"/>
<path d="M192.363 147.934H189.999V150.294H192.363V147.934Z" fill="black"/>
<path d="M192.363 144.95H189.999V147.309H192.363V144.95Z" fill="white"/>
<path d="M192.363 142.96H189.999V145.319H192.363V142.96Z" fill="black"/>
<path d="M192.363 140.971H189.999V143.319H192.363V140.971Z" fill="white"/>
<path d="M192.363 137.987H189.999V140.347H192.363V137.987Z" fill="white"/>
<path d="M192.363 135.002H189.999V137.362H192.363V135.002Z" fill="white"/>
<path d="M192.363 134.008H189.999V136.368H192.363V134.008Z" fill="black"/>
<path d="M192.363 131.023H189.999V133.383H192.363V131.023Z" fill="white"/>
<path d="M189.378 180.761H187.014V183.121H189.378V180.761Z" fill="white"/>
<path d="M189.378 177.777H187.014V180.136H189.378V177.777Z" fill="black"/>
<path d="M189.378 174.792H187.014V177.163H189.378V174.792Z" fill="white"/>
<path d="M189.378 173.798H187.014V176.157H189.378V173.798Z" fill="black"/>
<path d="M189.378 170.813H187.014V173.173H189.378V170.813Z" fill="white"/>
<path d="M189.378 167.83H187.014V170.189H189.378V167.83Z" fill="black"/>
<path d="M189.378 166.834H187.014V169.182H189.378V166.834Z" fill="white"/>
<path d="M189.378 164.845H187.014V167.204H189.378V164.845Z" fill="black"/>
<path d="M189.378 161.86H187.014V164.22H189.378V161.86Z" fill="white"/>
<path d="M189.378 159.87H187.014V162.23H189.378V159.87Z" fill="black"/>
<path d="M189.378 157.881H187.014V160.241H189.378V157.881Z" fill="white"/>
<path d="M189.378 154.898H187.014V157.257H189.378V154.898Z" fill="black"/>
<path d="M189.378 151.913H187.014V154.273H189.378V151.913Z" fill="white"/>
<path d="M189.378 150.919H187.014V153.289H189.378V150.919Z" fill="white"/>
<path d="M189.378 147.934H187.014V150.294H189.378V147.934Z" fill="white"/>
<path d="M189.378 144.95H187.014V147.309H189.378V144.95Z" fill="white"/>
<path d="M189.378 142.96H187.014V145.319H189.378V142.96Z" fill="black"/>
<path d="M189.378 140.971H187.014V143.319H189.378V140.971Z" fill="white"/>
<path d="M189.378 137.987H187.014V140.347H189.378V137.987Z" fill="black"/>
<path d="M189.378 135.002H187.014V137.362H189.378V135.002Z" fill="white"/>
<path d="M189.378 134.008H187.014V136.368H189.378V134.008Z" fill="black"/>
<path d="M189.378 131.023H187.014V133.383H189.378V131.023Z" fill="white"/>
<path d="M186.405 180.761H184.03V183.121H186.405V180.761Z" fill="white"/>
<path d="M186.405 177.777H184.03V180.136H186.405V177.777Z" fill="black"/>
<path d="M186.405 174.792H184.03V177.163H186.405V174.792Z" fill="white"/>
<path d="M186.405 173.798H184.03V176.157H186.405V173.798Z" fill="white"/>
<path d="M186.405 170.813H184.03V173.173H186.405V170.813Z" fill="white"/>
<path d="M186.405 167.83H184.03V170.189H186.405V167.83Z" fill="black"/>
<path d="M186.405 166.834H184.03V169.182H186.405V166.834Z" fill="white"/>
<path d="M186.405 164.845H184.03V167.204H186.405V164.845Z" fill="white"/>
<path d="M186.405 161.86H184.03V164.22H186.405V161.86Z" fill="black"/>
<path d="M186.405 159.87H184.03V162.23H186.405V159.87Z" fill="black"/>
<path d="M186.405 157.881H184.03V160.241H186.405V157.881Z" fill="white"/>
<path d="M186.405 154.898H184.03V157.257H186.405V154.898Z" fill="black"/>
<path d="M186.405 151.913H184.03V154.273H186.405V151.913Z" fill="white"/>
<path d="M186.405 150.919H184.03V153.289H186.405V150.919Z" fill="black"/>
<path d="M186.405 147.934H184.03V150.294H186.405V147.934Z" fill="black"/>
<path d="M186.405 144.95H184.03V147.309H186.405V144.95Z" fill="white"/>
<path d="M186.405 142.96H184.03V145.319H186.405V142.96Z" fill="black"/>
<path d="M186.405 140.971H184.03V143.319H186.405V140.971Z" fill="white"/>
<path d="M186.405 137.987H184.03V140.347H186.405V137.987Z" fill="white"/>
<path d="M186.405 135.002H184.03V137.362H186.405V135.002Z" fill="white"/>
<path d="M186.405 134.008H184.03V136.368H186.405V134.008Z" fill="black"/>
<path d="M186.405 131.023H184.03V133.383H186.405V131.023Z" fill="white"/>
<path d="M185.399 180.761H183.035V183.121H185.399V180.761Z" fill="white"/>
<path d="M185.399 177.777H183.035V180.136H185.399V177.777Z" fill="black"/>
<path d="M185.399 174.792H183.035V177.163H185.399V174.792Z" fill="black"/>
<path d="M185.399 173.798H183.035V176.157H185.399V173.798Z" fill="black"/>
<path d="M185.399 170.813H183.035V173.173H185.399V170.813Z" fill="black"/>
<path d="M185.399 167.83H183.035V170.189H185.399V167.83Z" fill="black"/>
<path d="M185.399 166.834H183.035V169.182H185.399V166.834Z" fill="white"/>
<path d="M185.399 164.845H183.035V167.204H185.399V164.845Z" fill="black"/>
<path d="M185.399 161.86H183.035V164.22H185.399V161.86Z" fill="white"/>
<path d="M185.399 159.87H183.035V162.23H185.399V159.87Z" fill="white"/>
<path d="M185.399 157.881H183.035V160.241H185.399V157.881Z" fill="black"/>
<path d="M185.399 154.898H183.035V157.257H185.399V154.898Z" fill="black"/>
<path d="M185.399 151.913H183.035V154.273H185.399V151.913Z" fill="white"/>
<path d="M185.399 150.919H183.035V153.289H185.399V150.919Z" fill="black"/>
<path d="M185.399 147.934H183.035V150.294H185.399V147.934Z" fill="black"/>
<path d="M185.399 144.95H183.035V147.309H185.399V144.95Z" fill="white"/>
<path d="M185.399 142.96H183.035V145.319H185.399V142.96Z" fill="black"/>
<path d="M185.399 140.971H183.035V143.319H185.399V140.971Z" fill="black"/>
<path d="M185.399 137.987H183.035V140.347H185.399V137.987Z" fill="black"/>
<path d="M185.399 135.002H183.035V137.362H185.399V135.002Z" fill="black"/>
<path d="M185.399 134.008H183.035V136.368H185.399V134.008Z" fill="black"/>
<path d="M185.399 131.023H183.035V133.383H185.399V131.023Z" fill="white"/>
<path d="M182.415 180.761H180.051V183.121H182.415V180.761Z" fill="white"/>
<path d="M182.415 177.777H180.051V180.136H182.415V177.777Z" fill="white"/>
<path d="M182.415 174.792H180.051V177.163H182.415V174.792Z" fill="white"/>
<path d="M182.415 173.798H180.051V176.157H182.415V173.798Z" fill="white"/>
<path d="M182.415 170.813H180.051V173.173H182.415V170.813Z" fill="white"/>
<path d="M182.415 167.83H180.051V170.189H182.415V167.83Z" fill="white"/>
<path d="M182.415 166.834H180.051V169.182H182.415V166.834Z" fill="white"/>
<path d="M182.415 164.845H180.051V167.204H182.415V164.845Z" fill="white"/>
<path d="M182.415 161.86H180.051V164.22H182.415V161.86Z" fill="white"/>
<path d="M182.415 159.87H180.051V162.23H182.415V159.87Z" fill="white"/>
<path d="M182.415 157.881H180.051V160.241H182.415V157.881Z" fill="white"/>
<path d="M182.415 154.898H180.051V157.257H182.415V154.898Z" fill="white"/>
<path d="M182.415 151.913H180.051V154.273H182.415V151.913Z" fill="white"/>
<path d="M182.415 150.919H180.051V153.289H182.415V150.919Z" fill="white"/>
<path d="M182.415 147.934H180.051V150.294H182.415V147.934Z" fill="white"/>
<path d="M182.415 144.95H180.051V147.309H182.415V144.95Z" fill="white"/>
<path d="M182.415 142.96H180.051V145.319H182.415V142.96Z" fill="white"/>
<path d="M182.415 140.971H180.051V143.319H182.415V140.971Z" fill="white"/>
<path d="M182.415 137.987H180.051V140.347H182.415V137.987Z" fill="white"/>
<path d="M182.415 135.002H180.051V137.362H182.415V135.002Z" fill="white"/>
<path d="M182.415 134.008H180.051V136.368H182.415V134.008Z" fill="white"/>
<path d="M182.416 131.025H180.052V133.384H182.416V131.025Z" fill="white"/>
<path d="M175.078 135.863V125.056H185.782" stroke="#35C178" stroke-width="1.8662" stroke-miterlimit="10"/>
<path d="M236.526 134.868V124.061H225.811" stroke="#35C178" stroke-width="1.8662" stroke-miterlimit="10"/>
<path d="M175.078 177.778V188.585H185.782" stroke="#35C178" stroke-width="1.8662" stroke-miterlimit="10"/>
<path d="M236.526 177.778V188.585H225.811" stroke="#35C178" stroke-width="1.8662" stroke-miterlimit="10"/>
<path d="M214.319 208.48H173.804C171.21 208.48 169.108 206.284 169.108 203.574C169.108 200.864 171.21 198.668 173.804 198.668H213.972" fill="#35C178"/>
<path d="M212.879 198.668H235.492C238.202 198.668 240.398 200.864 240.398 203.574C240.398 206.284 238.202 208.48 235.492 208.48H213.241" fill="#046235"/>
<path d="M262.616 160.867C262.616 160.867 264.155 163.983 266.184 168.769C267.21 171.151 268.359 173.956 269.552 176.972C270.131 178.485 270.767 180.032 271.358 181.635C271.96 183.227 272.562 184.851 273.164 186.465C273.744 188.09 274.335 189.715 274.904 191.318C275.483 192.92 276.007 194.512 276.532 196.037C277.58 199.108 278.505 201.991 279.263 204.473C280.802 209.426 281.649 212.798 281.649 212.798C281.649 212.798 280.111 209.682 278.081 204.896C277.056 202.514 275.907 199.709 274.714 196.693C274.134 195.18 273.499 193.633 272.908 192.03C272.306 190.438 271.704 188.814 271.101 187.2C270.522 185.575 269.931 183.95 269.362 182.347C268.782 180.745 268.258 179.153 267.734 177.628C266.697 174.557 265.761 171.674 265.002 169.192C263.464 164.239 262.616 160.867 262.616 160.867Z" fill="#EFAF84"/>
<path d="M249.863 154.899L262.652 155.79C264.581 155.923 266.309 156.646 267.714 157.771C269.944 159.574 271.293 162.4 271.081 165.461C271.059 165.695 271.048 165.929 271.003 166.151L285.364 213.496C285.364 213.496 285.219 216.056 285.019 220.374C285.008 220.386 285.008 220.386 285.008 220.397C284.127 237.514 281.964 282.389 281.941 307.686C281.93 314.698 282.086 320.218 282.477 323.212H231.432V316.078C231.432 316.067 231.42 316.067 231.409 316.056C231.387 316.022 231.365 316.011 231.354 315.989C220.638 298.716 213.614 277.981 211.35 262.122C211.038 260.085 210.837 258.126 210.715 256.245C210.704 256.19 210.704 256.134 210.681 256.067C210.38 252.973 209.098 245.494 208.173 240.252C207.626 237.169 207.203 234.865 207.158 234.676C207.158 234.665 207.158 234.665 207.158 234.665L189.496 210.625L187.144 207.431C183.564 202.578 184.635 195.756 189.496 192.194C191.447 190.759 193.711 190.08 195.963 190.08C199.331 190.08 202.642 191.627 204.783 194.532L208.173 199.162L214.015 207.108L216.602 210.625L222.779 219.039L228.644 227.041C228.644 227.041 228.666 227.052 228.678 227.086C229.213 227.587 236.605 234.186 242.626 224.593C242.671 223.636 242.727 222.678 242.838 221.743C244.689 202.589 256.452 188.31 256.452 188.31L251.881 173.241L249.818 173.096" fill="#FFCFA7"/>
<path d="M220.836 463.222H286.343V309.601C269.384 295.232 220.836 329.756 220.836 329.756V463.222Z" fill="#887FE1"/>
<path d="M286.343 315.055C286.343 315.055 271.313 450.647 220.836 463.602H286.343V315.055Z" fill="#484090"/>
</svg>
